<?xml version="1.0" encoding="utf-8"?>
<!-- Generator: Adobe Illustrator 19.0.0, SVG Export Plug-In . SVG Version: 6.00 Build 0)  -->
<svg version="1.1" id="Layer_1" xmlns="http://www.w3.org/2000/svg" xmlns:xlink="http://www.w3.org/1999/xlink" x="0px" y="0px"
	 viewBox="0 0 202.4 231.7" style="enable-background:new 0 0 202.4 231.7;" xml:space="preserve">
<style type="text/css">
	.st0{fill:#FFFFFF;}
</style>
<g>
	<g>
		<circle cx="77.9" cy="59.9" r="17.6"/>
		<circle cx="121.7" cy="59.9" r="17.6"/>
		<path d="M168.2,122.1l-28.3-36.4c-1-1.2-2.5-2-4-2l-77.9,0c-1.8,0-3.5,1-4.3,2.7l-18.9,38.5c-1.6,3.3-0.2,7.2,3.1,8.8
			c3.2,1.5,7,0.2,8.6-2.9l13.1-25.7l2.8,24.9l-5.9,52.3c-0.6,5,3.4,9.4,8.4,9.4c4.3,0,7.9-3.2,8.4-7.4l5-32.7l5.2,32.7
			c0.5,4.2,4.1,7.4,8.4,7.4h0c5.1,0,17.5,0.1,20.9,0c3.1,0,5.6-2.5,5.9-5.6l3.3-35.9l3.4,35.9c0.3,3.1,2.9,5.4,6,5.4h0
			c3.3,0,6-2.8,5.9-6.1l-1.3-39.1l12.5,0l-9-38.9l20,23.1c2.2,2,5.5,2.2,7.8,0.4v0C169.8,128.5,170.3,124.7,168.2,122.1z"/>
	</g>
	<g>
		<circle class="st0" cx="100.9" cy="119.3" r="10.2"/>
		<path class="st0" d="M129.4,155.6L129.4,155.6c1.1-1.4,1-3.4-0.3-4.6l-16-15.2c-1-0.9-2.3-1.5-3.7-1.5l-8.4,0l-8.4,0
			c-1.4,0-2.7,0.5-3.7,1.5l-16,15.2c-1.3,1.2-1.4,3.2-0.3,4.6l0,0c1.1,1.4,3.2,1.7,4.7,0.7l12-8.6l2,14.3l-3.8,30.5l9.8,0l3.7-20.3
			l3.7,20.3l9.8,0l-3.8-30.5l2-14.3l12,8.6C126.2,157.3,128.3,157,129.4,155.6z"/>
	</g>
</g>
</svg>
