<?xml version="1.0" encoding="utf-8"?>
<!-- Generator: Adobe Illustrator 19.0.0, SVG Export Plug-In . SVG Version: 6.00 Build 0)  -->
<svg version="1.1" id="Layer_1" xmlns="http://www.w3.org/2000/svg" xmlns:xlink="http://www.w3.org/1999/xlink" x="0px" y="0px"
	 viewBox="0 0 202.4 231.7" style="enable-background:new 0 0 202.4 231.7;" xml:space="preserve">
<style type="text/css">
	.st0{clip-path:url(#SVGID_2_);}
</style>
<g>
	<g>
		<g>
			<defs>
				<path id="SVGID_1_" d="M101.7,37.3c20.9,0,40.7,8,55.7,22.5c15.3,14.9,24,34.8,24.3,56.1c0.3,21.3-7.7,41.5-22.5,56.9
					c-7.7,7.9-16.7,14-26.8,18.2c-9.8,4-20.1,6.1-30.7,6.1c-20.9,0-40.7-8-55.7-22.5c-15.3-14.9-24-34.8-24.3-56.1
					c-0.3-21.3,7.7-41.5,22.5-56.9c7.7-7.9,16.7-14,26.8-18.2C80.8,39.3,91.1,37.3,101.7,37.3L101.7,37.3 M101.7,31.6
					c-22.4,0-44.8,8.7-61.6,26C7.2,91.6,8,145.8,42,178.7c16.6,16.1,38.2,24.1,59.6,24.1c22.4,0,44.8-8.7,61.6-26
					c33-34,32.1-88.2-1.9-121.1C144.7,39.6,123.2,31.6,101.7,31.6L101.7,31.6z"/>
			</defs>
			<use xlink:href="#SVGID_1_"  style="overflow:visible;"/>
			<clipPath id="SVGID_2_">
				<use xlink:href="#SVGID_1_"  style="overflow:visible;"/>
			</clipPath>
			<rect x="7.2" y="31.6" class="st0" width="189" height="171.3"/>
			<circle class="st0" cx="101.7" cy="117.2" r="85.7"/>
			<circle class="st0" cx="101.7" cy="117.2" r="85"/>
			<circle class="st0" cx="101.7" cy="117.2" r="84.4"/>
			<circle class="st0" cx="101.7" cy="117.2" r="83.7"/>
			<circle class="st0" cx="101.7" cy="117.2" r="83.1"/>
			<circle class="st0" cx="101.7" cy="117.2" r="82.5"/>
			<circle class="st0" cx="101.7" cy="117.2" r="81.8"/>
			<circle class="st0" cx="101.7" cy="117.2" r="81.2"/>
			<circle class="st0" cx="101.7" cy="117.2" r="80.5"/>
			<circle class="st0" cx="101.7" cy="117.2" r="79.9"/>
			<circle class="st0" cx="101.7" cy="117.2" r="79.2"/>
			<circle class="st0" cx="101.7" cy="117.2" r="78.6"/>
			<circle class="st0" cx="101.7" cy="117.2" r="78"/>
			<circle class="st0" cx="101.7" cy="117.2" r="77.3"/>
			<circle class="st0" cx="101.7" cy="117.2" r="76.7"/>
			<circle class="st0" cx="101.7" cy="117.2" r="76"/>
			<circle class="st0" cx="101.7" cy="117.2" r="75.4"/>
			<circle class="st0" cx="101.7" cy="117.2" r="74.7"/>
			<circle class="st0" cx="101.7" cy="117.2" r="74.1"/>
			<circle class="st0" cx="101.7" cy="117.2" r="73.4"/>
			<circle class="st0" cx="101.7" cy="117.2" r="72.8"/>
			<circle class="st0" cx="101.7" cy="117.2" r="72.2"/>
			<circle class="st0" cx="101.7" cy="117.2" r="71.5"/>
			<circle class="st0" cx="101.7" cy="117.2" r="70.9"/>
			<circle class="st0" cx="101.7" cy="117.2" r="70.2"/>
			<circle class="st0" cx="101.7" cy="117.2" r="69.6"/>
			<circle class="st0" cx="101.7" cy="117.2" r="68.9"/>
			<circle class="st0" cx="101.7" cy="117.2" r="68.3"/>
			<circle class="st0" cx="101.7" cy="117.2" r="67.6"/>
			<circle class="st0" cx="101.7" cy="117.2" r="67"/>
			<circle class="st0" cx="101.7" cy="117.2" r="66.4"/>
			<circle class="st0" cx="101.7" cy="117.2" r="65.7"/>
			<circle class="st0" cx="101.7" cy="117.2" r="65.1"/>
			<circle class="st0" cx="101.7" cy="117.2" r="64.4"/>
			<circle class="st0" cx="101.7" cy="117.2" r="63.8"/>
			<circle class="st0" cx="101.7" cy="117.2" r="63.1"/>
			<circle class="st0" cx="101.7" cy="117.2" r="62.5"/>
			<circle class="st0" cx="101.7" cy="117.2" r="61.8"/>
			<circle class="st0" cx="101.7" cy="117.2" r="61.2"/>
			<circle class="st0" cx="101.7" cy="117.2" r="60.6"/>
			<circle class="st0" cx="101.7" cy="117.2" r="59.9"/>
			<circle class="st0" cx="101.7" cy="117.2" r="59.3"/>
			<circle class="st0" cx="101.7" cy="117.2" r="58.6"/>
			<circle class="st0" cx="101.7" cy="117.2" r="58"/>
			<circle class="st0" cx="101.7" cy="117.2" r="57.3"/>
			<circle class="st0" cx="101.7" cy="117.2" r="56.7"/>
			<circle class="st0" cx="101.7" cy="117.2" r="56"/>
			<circle class="st0" cx="101.7" cy="117.2" r="55.4"/>
			<circle class="st0" cx="101.7" cy="117.2" r="54.8"/>
			<circle class="st0" cx="101.7" cy="117.2" r="54.1"/>
			<circle class="st0" cx="101.7" cy="117.2" r="53.5"/>
			<circle class="st0" cx="101.7" cy="117.2" r="52.8"/>
			<circle class="st0" cx="101.7" cy="117.2" r="52.2"/>
			<circle class="st0" cx="101.7" cy="117.2" r="51.5"/>
			<circle class="st0" cx="101.7" cy="117.2" r="50.9"/>
			<circle class="st0" cx="101.7" cy="117.2" r="50.2"/>
			<circle class="st0" cx="101.7" cy="117.2" r="49.6"/>
			<circle class="st0" cx="101.7" cy="117.2" r="49"/>
			<circle class="st0" cx="101.7" cy="117.2" r="48.3"/>
			<circle class="st0" cx="101.7" cy="117.2" r="47.7"/>
			<circle class="st0" cx="101.7" cy="117.2" r="47"/>
			<circle class="st0" cx="101.7" cy="117.2" r="46.4"/>
			<circle class="st0" cx="101.7" cy="117.2" r="45.7"/>
			<circle class="st0" cx="101.7" cy="117.2" r="45.1"/>
			<circle class="st0" cx="101.7" cy="117.2" r="44.5"/>
			<circle class="st0" cx="101.7" cy="117.2" r="43.8"/>
			<circle class="st0" cx="101.7" cy="117.2" r="43.2"/>
			<circle class="st0" cx="101.7" cy="117.2" r="42.5"/>
			<circle class="st0" cx="101.7" cy="117.2" r="41.9"/>
			<circle class="st0" cx="101.7" cy="117.2" r="41.2"/>
			<circle class="st0" cx="101.7" cy="117.2" r="40.6"/>
			<circle class="st0" cx="101.7" cy="117.2" r="39.9"/>
			<circle class="st0" cx="101.7" cy="117.2" r="39.3"/>
			<circle class="st0" cx="101.7" cy="117.2" r="38.7"/>
			<circle class="st0" cx="101.7" cy="117.2" r="38"/>
			<circle class="st0" cx="101.7" cy="117.2" r="37.4"/>
			<circle class="st0" cx="101.7" cy="117.2" r="36.7"/>
			<circle class="st0" cx="101.7" cy="117.2" r="36.1"/>
			<circle class="st0" cx="101.7" cy="117.2" r="35.4"/>
			<circle class="st0" cx="101.7" cy="117.2" r="34.8"/>
			<circle class="st0" cx="101.7" cy="117.2" r="34.1"/>
			<circle class="st0" cx="101.7" cy="117.2" r="33.5"/>
			<circle class="st0" cx="101.7" cy="117.2" r="32.9"/>
			<circle class="st0" cx="101.7" cy="117.2" r="32.2"/>
			<circle class="st0" cx="101.7" cy="117.2" r="31.6"/>
			<circle class="st0" cx="101.7" cy="117.2" r="30.9"/>
			<circle class="st0" cx="101.7" cy="117.2" r="30.3"/>
			<circle class="st0" cx="101.7" cy="117.2" r="29.6"/>
			<circle class="st0" cx="101.7" cy="117.2" r="29"/>
			<circle class="st0" cx="101.7" cy="117.2" r="28.3"/>
			<circle class="st0" cx="101.7" cy="117.2" r="27.7"/>
			<circle class="st0" cx="101.7" cy="117.2" r="27.1"/>
			<circle class="st0" cx="101.7" cy="117.2" r="26.4"/>
			<circle class="st0" cx="101.7" cy="117.2" r="25.8"/>
			<circle class="st0" cx="101.7" cy="117.2" r="25.1"/>
			<circle class="st0" cx="101.7" cy="117.2" r="24.5"/>
			<circle class="st0" cx="101.7" cy="117.2" r="23.8"/>
			<circle class="st0" cx="101.7" cy="117.2" r="23.2"/>
			<circle class="st0" cx="101.7" cy="117.2" r="22.5"/>
			<circle class="st0" cx="101.7" cy="117.2" r="21.9"/>
			<circle class="st0" cx="101.7" cy="117.2" r="21.3"/>
			<circle class="st0" cx="101.7" cy="117.2" r="20.6"/>
			<circle class="st0" cx="101.7" cy="117.2" r="20"/>
			<circle class="st0" cx="101.7" cy="117.2" r="19.3"/>
			<circle class="st0" cx="101.7" cy="117.2" r="18.7"/>
			<circle class="st0" cx="101.7" cy="117.2" r="18"/>
			<circle class="st0" cx="101.7" cy="117.2" r="17.4"/>
			<circle class="st0" cx="101.7" cy="117.2" r="16.7"/>
			<circle class="st0" cx="101.7" cy="117.2" r="16.1"/>
			<circle class="st0" cx="101.7" cy="117.2" r="15.5"/>
			<circle class="st0" cx="101.7" cy="117.2" r="14.8"/>
			<circle class="st0" cx="101.7" cy="117.2" r="14.2"/>
			<circle class="st0" cx="101.7" cy="117.2" r="13.5"/>
			<circle class="st0" cx="101.7" cy="117.2" r="12.9"/>
			<circle class="st0" cx="101.7" cy="117.2" r="12.2"/>
			<circle class="st0" cx="101.7" cy="117.2" r="11.6"/>
			<circle class="st0" cx="101.7" cy="117.2" r="11"/>
			<circle class="st0" cx="101.7" cy="117.2" r="10.3"/>
			<circle class="st0" cx="101.7" cy="117.2" r="9.7"/>
			<circle class="st0" cx="101.7" cy="117.2" r="9"/>
			<circle class="st0" cx="101.7" cy="117.2" r="8.4"/>
			<circle class="st0" cx="101.7" cy="117.2" r="7.7"/>
			<circle class="st0" cx="101.7" cy="117.2" r="7.1"/>
			<circle class="st0" cx="101.7" cy="117.2" r="6.4"/>
			<circle class="st0" cx="101.7" cy="117.2" r="5.8"/>
			<circle class="st0" cx="101.7" cy="117.2" r="5.2"/>
			<circle class="st0" cx="101.7" cy="117.2" r="4.5"/>
			<circle class="st0" cx="101.7" cy="117.2" r="3.9"/>
			<circle class="st0" cx="101.7" cy="117.2" r="3.2"/>
			<circle class="st0" cx="101.7" cy="117.2" r="2.6"/>
			<circle class="st0" cx="101.7" cy="117.2" r="1.9"/>
			<circle class="st0" cx="101.7" cy="117.2" r="1.3"/>
			<circle class="st0" cx="101.7" cy="117.2" r="0.6"/>
			<rect x="21.4" y="37.3" class="st0" width="160.7" height="159.8"/>
			<path class="st0" d="M182.6,117.2v17.3h3c-1.1,5.6-2.8,11-5,16.1c-4.3,10.2-10.6,19.5-18.4,27.2c-7.8,7.8-17,14-27.2,18.4
				c-5.1,2.2-10.5,3.9-16.1,5v-3.5H84.4v3.5c-5.6-1.1-11-2.8-16.1-5c-10.3-4.3-19.5-10.6-27.2-18.4c-7.8-7.8-14-17-18.4-27.2
				c-2.2-5.1-3.9-10.5-5-16.1h3V99.9h-3c1.1-5.6,2.8-11,5-16.1c4.3-10.3,10.6-19.5,18.4-27.2c7.8-7.8,17-14,27.2-18.4
				c5.1-2.2,10.5-3.9,16.1-5v3.5H119v-3.5c5.6,1.1,11,2.8,16.1,5c10.3,4.3,19.5,10.6,27.2,18.4c7.8,7.8,14,17,18.4,27.2
				c2.2,5.1,3.9,10.5,5,16.1h-3V117.2z"/>
			<path class="st0" d="M182.6,117.2v17.1h2.4c-1.1,5.5-2.8,10.9-5,16c-4.3,10.2-10.5,19.3-18.2,27c-7.7,7.7-16.9,13.9-27,18.2
				c-5.1,2.2-10.4,3.8-16,5v-2.8H84.6v2.8c-5.5-1.1-10.9-2.8-16-5c-10.2-4.3-19.3-10.5-27-18.2c-7.7-7.7-13.9-16.9-18.2-27
				c-2.1-5.1-3.8-10.4-5-16h2.4v-34.3h-2.4c1.1-5.5,2.8-10.9,5-16c4.3-10.2,10.5-19.3,18.2-27c7.7-7.7,16.9-13.9,27-18.2
				c5.1-2.2,10.4-3.8,16-5v2.8h34.3v-2.8c5.5,1.1,10.9,2.8,16,5c10.2,4.3,19.3,10.5,27,18.2c7.7,7.7,13.9,16.9,18.2,27
				c2.2,5.1,3.8,10.4,5,16h-2.4V117.2z"/>
			<circle class="st0" cx="101.7" cy="117.2" r="84.4"/>
			<circle class="st0" cx="101.7" cy="117.2" r="83.7"/>
			<circle class="st0" cx="101.7" cy="117.2" r="83.1"/>
			<circle class="st0" cx="101.7" cy="117.2" r="82.5"/>
			<circle class="st0" cx="101.7" cy="117.2" r="81.8"/>
			<circle class="st0" cx="101.7" cy="117.2" r="81.2"/>
			<circle class="st0" cx="101.7" cy="117.2" r="80.5"/>
			<circle class="st0" cx="101.7" cy="117.2" r="79.9"/>
			<circle class="st0" cx="101.7" cy="117.2" r="79.2"/>
			<circle class="st0" cx="101.7" cy="117.2" r="78.6"/>
			<circle class="st0" cx="101.7" cy="117.2" r="78"/>
			<circle class="st0" cx="101.7" cy="117.2" r="77.3"/>
			<circle class="st0" cx="101.7" cy="117.2" r="76.7"/>
			<circle class="st0" cx="101.7" cy="117.2" r="76"/>
			<circle class="st0" cx="101.7" cy="117.2" r="75.4"/>
			<circle class="st0" cx="101.7" cy="117.2" r="74.7"/>
			<circle class="st0" cx="101.7" cy="117.2" r="74.1"/>
			<circle class="st0" cx="101.7" cy="117.2" r="73.4"/>
			<circle class="st0" cx="101.7" cy="117.2" r="72.8"/>
			<circle class="st0" cx="101.7" cy="117.2" r="72.2"/>
			<circle class="st0" cx="101.7" cy="117.2" r="71.5"/>
			<circle class="st0" cx="101.7" cy="117.2" r="70.9"/>
			<circle class="st0" cx="101.7" cy="117.2" r="70.2"/>
			<circle class="st0" cx="101.7" cy="117.2" r="69.6"/>
			<circle class="st0" cx="101.7" cy="117.2" r="68.9"/>
			<circle class="st0" cx="101.7" cy="117.2" r="68.3"/>
			<circle class="st0" cx="101.7" cy="117.2" r="67.6"/>
			<circle class="st0" cx="101.7" cy="117.2" r="67"/>
			<circle class="st0" cx="101.7" cy="117.2" r="66.4"/>
			<circle class="st0" cx="101.7" cy="117.2" r="65.7"/>
			<circle class="st0" cx="101.7" cy="117.2" r="65.1"/>
			<circle class="st0" cx="101.7" cy="117.2" r="64.4"/>
			<circle class="st0" cx="101.7" cy="117.2" r="63.8"/>
			<circle class="st0" cx="101.7" cy="117.2" r="63.1"/>
			<circle class="st0" cx="101.7" cy="117.2" r="62.5"/>
			<circle class="st0" cx="101.7" cy="117.2" r="61.8"/>
			<circle class="st0" cx="101.7" cy="117.2" r="61.2"/>
			<circle class="st0" cx="101.7" cy="117.2" r="60.6"/>
			<circle class="st0" cx="101.7" cy="117.2" r="59.9"/>
			<circle class="st0" cx="101.7" cy="117.2" r="59.3"/>
			<circle class="st0" cx="101.7" cy="117.2" r="58.6"/>
			<circle class="st0" cx="101.7" cy="117.2" r="58"/>
			<circle class="st0" cx="101.7" cy="117.2" r="57.3"/>
			<circle class="st0" cx="101.7" cy="117.2" r="56.7"/>
			<circle class="st0" cx="101.7" cy="117.2" r="56"/>
			<circle class="st0" cx="101.7" cy="117.2" r="55.4"/>
			<circle class="st0" cx="101.7" cy="117.2" r="54.8"/>
			<circle class="st0" cx="101.7" cy="117.2" r="54.1"/>
			<circle class="st0" cx="101.7" cy="117.2" r="53.5"/>
			<circle class="st0" cx="101.7" cy="117.2" r="52.8"/>
			<circle class="st0" cx="101.7" cy="117.2" r="52.2"/>
			<circle class="st0" cx="101.7" cy="117.2" r="51.5"/>
			<circle class="st0" cx="101.7" cy="117.2" r="50.9"/>
			<circle class="st0" cx="101.7" cy="117.2" r="50.2"/>
			<circle class="st0" cx="101.7" cy="117.2" r="49.6"/>
			<circle class="st0" cx="101.7" cy="117.2" r="49"/>
			<circle class="st0" cx="101.7" cy="117.2" r="48.3"/>
			<circle class="st0" cx="101.7" cy="117.2" r="47.7"/>
			<circle class="st0" cx="101.7" cy="117.2" r="47"/>
			<circle class="st0" cx="101.7" cy="117.2" r="46.4"/>
			<circle class="st0" cx="101.7" cy="117.2" r="45.7"/>
			<circle class="st0" cx="101.7" cy="117.2" r="45.1"/>
			<circle class="st0" cx="101.7" cy="117.2" r="44.5"/>
			<circle class="st0" cx="101.7" cy="117.2" r="43.8"/>
			<circle class="st0" cx="101.7" cy="117.2" r="43.2"/>
			<circle class="st0" cx="101.7" cy="117.2" r="42.5"/>
			<circle class="st0" cx="101.7" cy="117.2" r="41.9"/>
			<circle class="st0" cx="101.7" cy="117.2" r="41.2"/>
			<circle class="st0" cx="101.7" cy="117.2" r="40.6"/>
			<circle class="st0" cx="101.7" cy="117.2" r="39.9"/>
			<circle class="st0" cx="101.7" cy="117.2" r="39.3"/>
			<circle class="st0" cx="101.7" cy="117.2" r="38.7"/>
			<circle class="st0" cx="101.7" cy="117.2" r="38"/>
			<circle class="st0" cx="101.7" cy="117.2" r="37.4"/>
			<circle class="st0" cx="101.7" cy="117.2" r="36.7"/>
			<circle class="st0" cx="101.7" cy="117.2" r="36.1"/>
			<circle class="st0" cx="101.7" cy="117.2" r="35.4"/>
			<circle class="st0" cx="101.7" cy="117.2" r="34.8"/>
			<circle class="st0" cx="101.7" cy="117.2" r="34.1"/>
			<circle class="st0" cx="101.7" cy="117.2" r="33.5"/>
			<circle class="st0" cx="101.7" cy="117.2" r="32.9"/>
			<circle class="st0" cx="101.7" cy="117.2" r="32.2"/>
			<circle class="st0" cx="101.7" cy="117.2" r="31.6"/>
			<circle class="st0" cx="101.7" cy="117.2" r="30.9"/>
			<circle class="st0" cx="101.7" cy="117.2" r="30.3"/>
			<circle class="st0" cx="101.7" cy="117.2" r="29.6"/>
			<circle class="st0" cx="101.7" cy="117.2" r="29"/>
			<circle class="st0" cx="101.7" cy="117.2" r="28.3"/>
			<circle class="st0" cx="101.7" cy="117.2" r="27.7"/>
			<circle class="st0" cx="101.7" cy="117.2" r="27.1"/>
			<circle class="st0" cx="101.7" cy="117.2" r="26.4"/>
			<circle class="st0" cx="101.7" cy="117.2" r="25.8"/>
			<circle class="st0" cx="101.7" cy="117.2" r="25.1"/>
			<circle class="st0" cx="101.7" cy="117.2" r="24.5"/>
			<circle class="st0" cx="101.7" cy="117.2" r="23.8"/>
			<circle class="st0" cx="101.7" cy="117.2" r="23.2"/>
			<circle class="st0" cx="101.7" cy="117.2" r="22.5"/>
			<circle class="st0" cx="101.7" cy="117.2" r="21.9"/>
			<circle class="st0" cx="101.7" cy="117.2" r="21.3"/>
			<circle class="st0" cx="101.7" cy="117.2" r="20.6"/>
			<circle class="st0" cx="101.7" cy="117.2" r="20"/>
			<circle class="st0" cx="101.7" cy="117.2" r="19.3"/>
			<circle class="st0" cx="101.7" cy="117.2" r="18.7"/>
			<circle class="st0" cx="101.7" cy="117.2" r="18"/>
			<circle class="st0" cx="101.7" cy="117.2" r="17.4"/>
			<circle class="st0" cx="101.7" cy="117.2" r="16.7"/>
			<circle class="st0" cx="101.7" cy="117.2" r="16.1"/>
			<circle class="st0" cx="101.7" cy="117.2" r="15.5"/>
			<circle class="st0" cx="101.7" cy="117.2" r="14.8"/>
			<circle class="st0" cx="101.7" cy="117.2" r="14.2"/>
			<circle class="st0" cx="101.7" cy="117.2" r="13.5"/>
			<circle class="st0" cx="101.7" cy="117.2" r="12.9"/>
			<circle class="st0" cx="101.7" cy="117.2" r="12.2"/>
			<circle class="st0" cx="101.7" cy="117.2" r="11.6"/>
			<circle class="st0" cx="101.7" cy="117.2" r="11"/>
			<circle class="st0" cx="101.7" cy="117.2" r="10.3"/>
			<circle class="st0" cx="101.7" cy="117.2" r="9.7"/>
			<circle class="st0" cx="101.7" cy="117.2" r="9"/>
			<circle class="st0" cx="101.7" cy="117.2" r="8.4"/>
			<circle class="st0" cx="101.7" cy="117.2" r="7.7"/>
			<circle class="st0" cx="101.7" cy="117.2" r="7.1"/>
			<circle class="st0" cx="101.7" cy="117.2" r="6.4"/>
			<circle class="st0" cx="101.7" cy="117.2" r="5.8"/>
			<circle class="st0" cx="101.7" cy="117.2" r="5.2"/>
			<circle class="st0" cx="101.7" cy="117.2" r="4.5"/>
			<circle class="st0" cx="101.7" cy="117.2" r="3.9"/>
			<circle class="st0" cx="101.7" cy="117.2" r="3.2"/>
			<circle class="st0" cx="101.7" cy="117.2" r="2.6"/>
			<circle class="st0" cx="101.7" cy="117.2" r="1.9"/>
			<circle class="st0" cx="101.7" cy="117.2" r="1.3"/>
			<circle class="st0" cx="101.7" cy="117.2" r="0.6"/>
		</g>
	</g>
	<g>
		<path d="M21.2,87.6l0,0.1L21.2,87.6c-0.1,0.2-0.1,0.4-0.2,0.5C21.1,87.9,21.2,87.7,21.2,87.6 M21.3,87.3c0,0.1-0.1,0.2-0.1,0.3
			l0,0C21.3,87.6,21.3,87.5,21.3,87.3 M21.3,87.3C21.3,87.3,21.4,87.3,21.3,87.3c0,0.1-0.1,0.2-0.1,0.3l0,0
			C21.3,87.6,21.3,87.4,21.3,87.3 M21.4,87.3c0.4-1.1,0.9-2.2,1.3-3.2l-0.4,1c-0.2,0.5-0.4,1-0.6,1.6C21.6,86.8,21.5,87.1,21.4,87.3
			C21.4,87.3,21.4,87.3,21.4,87.3 M21.7,86.3c0-0.1,0.1-0.2,0.1-0.3c0-0.1,0.1-0.2,0.1-0.3c0-0.1,0.1-0.2,0.1-0.3
			c0.2-0.5,0.4-1,0.6-1.5l0,0.1c-0.4,1-0.8,2.1-1.3,3.2C21.5,87,21.6,86.7,21.7,86.3 M23.7,81.8c0.8-1.7,1.1-2.4,1.4-2.8l0.1-0.2
			l0,0c0.1-0.2,0.2-0.4,0.3-0.5c0,0.1-0.1,0.2-0.1,0.3c-0.2,0.3-0.3,0.6-0.5,1c-0.4,0.9-0.8,1.7-1.2,2.5c-0.2,0.4-0.4,0.8-0.6,1.2
			C23.2,82.7,23.4,82.2,23.7,81.8 M17.6,133.5L17.6,133.5c-0.1-0.3-0.1-0.6-0.2-0.9c0.1,0.4,0.2,0.8,0.2,1.2
			C17.6,133.7,17.6,133.6,17.6,133.5 M16.1,122.1c0,0.5,0.1,1,0.1,1.5l0,0.8C16.2,123.6,16.2,122.9,16.1,122.1 M16.2,110.5
			c-0.1,1.4-0.2,2.9-0.2,4.5c0,0.5,0,1,0,1.5v0C16,113.9,16,112.7,16.2,110.5 M16,115c0,0.3,0,0.7,0,1l0,0.5C16,116,16,115.5,16,115
			 M19.7,92.3c-0.1,0.3-0.1,0.5-0.2,0.8c-0.1,0.2-0.1,0.4-0.2,0.6c-0.1,0.2-0.1,0.4-0.2,0.5l0,0.1C19.3,93.5,19.5,92.9,19.7,92.3
			 M19.7,92.1l0-0.1c0,0.1-0.1,0.2-0.1,0.3C19.7,92.2,19.7,92.1,19.7,92.1 M93.3,32.3L93.3,32.3L93.3,32.3c0.1,0,0.2,0,0.3,0l-0.1,0
			l0.1,0c0.1,0,0.3,0,0.4,0l0,0l0.1,0h0.1c-0.2,0-0.4,0-0.6,0.1c-0.2,0-0.5,0-0.7,0.1C93.1,32.3,93.2,32.3,93.3,32.3 M93.4,32.3
			L93.4,32.3L93.4,32.3L93.4,32.3 M94.3,32.2L94.3,32.2l0.1,0l0.4,0c0,0-0.1,0-0.1,0h0l-0.1,0C94.6,32.2,94.5,32.2,94.3,32.2
			L94.3,32.2l-0.2,0c0,0-0.1,0-0.1,0c-0.1,0-0.2,0-0.3,0C93.9,32.2,94.1,32.2,94.3,32.2 M94.5,32.2L94.5,32.2l0.3,0l0.1,0l0.1,0l0,0
			l0.1,0h0.1c0.1,0,0.2,0,0.3,0c-0.2,0-0.3,0-0.5,0L94.5,32.2L94.5,32.2 M94.7,32.2C94.7,32.2,94.7,32.2,94.7,32.2
			C94.8,32.2,94.7,32.2,94.7,32.2L94.7,32.2 M95.2,32.1l0.2,0c0,0,0,0,0,0C95.3,32.1,95.2,32.1,95.2,32.1L95.2,32.1 M95.2,32.1
			l0.1,0h0c0,0,0,0,0,0L95.2,32.1L95.2,32.1 M95.4,32.1C95.4,32.1,95.4,32.1,95.4,32.1L95.4,32.1C95.4,32.1,95.4,32.1,95.4,32.1
			L95.4,32.1 M95.9,32.1L95.9,32.1C95.9,32.1,95.9,32.1,95.9,32.1L95.9,32.1 M86.6,135.8c0-0.2-0.1-0.4-0.2-0.6c0-0.1,0-0.2,0-0.3
			l0-0.3l0-0.1l-0.6-0.8c-0.1-0.1-0.2-0.1-0.3-0.2c-0.2-0.3-0.2-0.3-0.3-0.3c-0.1-0.1-0.2-0.2-0.2-0.9l-0.4-0.1c0,0-0.1,0.1-0.1,0.1
			c-0.1,0-0.1,0.1-0.2,0.4c0,0.1,0.1,0.2,0.1,0.3c0,0.1-0.1,0.2-0.1,0.3l0,0c0,0.1,0.1,0.1,0.1,0.2c0,0.1-0.1,0.2-0.1,0.3
			c0,0.1,0.1,0.2,0.1,0.3c0,0,0,0-0.2,0.2c-0.2,0.2-0.2,1.6,0.2,2c0,0,0.6,0.5,0.9,0.5c0.1,0,0.1,0,1.2,0
			C86.6,136,86.6,136,86.6,135.8 M139.1,189c0.2-0.2,0.5-0.4,0.7-0.6c-0.2,0-0.4,0-0.7,0c0,0-0.3,0.1-0.5,0.1l-0.2,0l0.1-0.3l0-0.1
			c0-0.1,0.1-0.2,0.1-0.2l0,0c-0.1,0-0.4,0.1-0.4,0.1c-0.6,0.4-0.6,0.4-0.6,0.5c-0.1,0.2-0.1,0.2-0.3,0.3l-0.2,0.1l-0.2,0.2l0,0.1
			c0,0.2-0.2,0.3-0.3,0.4c-0.1,0.1-0.1,0.2-0.2,0.3c-0.1,0.1-0.2,0.2-0.3,0.4l0.1,0l0.1,0l0.2,0c0.2-0.1,0.4-0.3,0.5-0.4l0.1-0.1
			c0.2,0,0.3,0,0.4,0c0.1-0.1,0.3-0.2,0.5-0.4c0.2-0.1,0.3-0.3,0.5-0.4C138.8,189.1,138.9,189.1,139.1,189 M140.5,188l0.3-0.3
			c0.1-0.1,0.1-0.1,0.1-0.2l0-0.1l0.1-0.1l0.1-0.2l0,0l-0.1,0l0,0h0l0,0l0,0c-0.1,0-0.1,0.1-0.2,0.1l0,0l-0.1,0.1
			c-0.3,0.2-0.3,0.2-0.2,0.3l0.1,0c0,0.1-0.1,0.1-0.2,0.2l-0.1,0.1L140.5,188 M138.2,187.8c0.2-0.2,0.4-0.4,0.6-0.6l-0.1,0
			c0,0-0.2,0.1-0.5,0.2c-0.1,0.1-0.1,0.1-0.3,0.5L138.2,187.8 M148.7,188c0.2-0.2,0.5-0.3,0.6-0.5c-0.1,0-0.1,0-0.1,0
			c0.5-0.3,0.5-0.4,0.5-0.5l-0.2,0.1c-0.3,0.2-0.7,0.5-1,0.7c-1.1,0.6-2.2,1.4-3.3,1.9c-1.3,0.6-1.3,0.6-1.5,0.7
			c-1,0.5-1.1,0.6-1.3,0.7h0l0,0h0l0,0h0h0h0l0,0c-0.1,0-0.9,0.5-1.2,0.7v0c0.2,0,0.2,0,0.2,0c-0.1,0.1-0.3,0.2-0.3,0.3l0.1,0
			C145.7,189.9,148.4,188.2,148.7,188 M139.9,192.8c0.1,0,0.2-0.1,0.3-0.1c0.1,0,0.1-0.1,0.2-0.1l-0.1,0c0,0,0,0-0.2,0.1
			L139.9,192.8L139.9,192.8l-0.2,0L139.9,192.8 M153.8,184.7c0.2-0.1,0.6-0.5,0.6-0.6c0,0-0.1,0-0.2,0.1c-0.1,0.1-0.1,0.1-0.2,0.2
			c-0.1,0.1-0.1,0-0.2,0l-0.1,0l-0.1,0.1c1.3-1.1,1.3-1.1,1.4-1.2c-0.3,0.1-0.5,0.4-0.7,0.5c0.3-0.5,0.8-0.7,1.2-1.1l-0.1,0
			c1.1-1.1,1.1-1.2,1.1-1.2l0,0c-0.1,0-0.4,0.4-0.5,0.5c-1.7,1.7-1.7,1.7-2.7,2.5c-0.4,0.4-0.9,0.7-1.3,1c-0.1,0-0.2,0-0.2,0
			c-0.3,0.2-0.5,0.4-0.8,0.6l-0.2,0.2c0.1,0,0.2,0,0.3-0.1c-0.6,0.4-1.2,0.9-1.8,1.3l0.2,0c0.9-0.6,1.8-1.2,2.6-1.8l0.1,0l0,0l0,0
			c0.4-0.3,1.1-0.8,1.1-0.8l0.1,0L153.8,184.7 M165.7,169.3c0.1-0.2,0.2-0.5,0.2-0.5l-0.1-0.1c0-0.1,0.1-0.2,0.1-0.3l0,0
			c0-0.1,0.1-0.3,0.1-0.3c0.3-0.5,0.2-1,0.2-1.1l-0.1,0l-0.2,0.1c-0.1,0.2-0.1,0.3-0.2,0.5l0,0c0,0,0,0,0,0.1c0,0.1,0,0.1-0.2,0.3
			c-0.1,0.1-0.2,0.3-0.3,0.6c0,0.2,0.1,0.3,0.1,0.5c0,0.1,0,0.2,0,0.3l0,0l0.2,0L165.7,169.3 M145,158.8c0-0.2,0.1-0.3,0.1-0.5
			l-0.4-0.1c-0.5,0.1-0.5,0.1-1,0.2c0.1,0,0.2,0,0.2-0.1c-0.1,0-0.3,0.1-0.5,0.3c0,0-0.2,0.4,0,0.5c0.1,0,0.2,0,0.3,0
			c0.1-0.1,0.1-0.1,0.6-0.1c0.1,0,0.1,0,0.2,0C144.7,158.8,144.8,158.8,145,158.8 M153.2,177.3c0.3-0.3,0.5-0.7,0.8-1
			c0.1-0.2,0.1-0.5,0.2-0.7c0-0.1,0.1-0.1,0.2-0.3c0.3-0.3,0.6-0.6,0.8-1l0,0c0.1-0.2,0.3-0.4,0.5-0.7c0,0,0.9-1.6,0.4-2.4l0.1-0.2
			c0.2-0.3,0.4-0.7,0.6-1c-1-0.1-1-0.1-0.8-0.6c0-0.1,0.1-0.1,0.1-0.2c0.1-0.2,0.1-0.2,0.4-0.7l-0.2,0c0-0.2,0.1-0.4,0.1-0.5
			c-0.3-0.2-0.5-0.3-0.4-1c-0.8-0.8-0.8-0.8-0.4-1.7c0,0,0,0,0.1-0.2c0.1-0.4,0.1-0.4,0.2-0.6c0-0.1,0.1-0.2,0.1-0.2
			c0,0,0.6-2,0.5-2.5c-0.3-0.1-0.7-0.1-1.1-0.3c0.1-0.2,0.2-0.5,0.2-0.7c0-0.1,0.1-0.2,0.1-0.2c0.5-1.2,0.4-2.6,0.2-2.8l-0.2,0
			c-0.1,0.2-0.2,0.5-0.4,0.7c0,0.1-0.1,0.2-0.1,0.3c-0.7,0.7-0.7,0.7-1.5,2.6c-0.1,0.2-0.1,0.3-0.2,0.6c-0.2,0.3-0.2,0.3-0.6,0.8
			c-0.3,0.7-0.5,1.3-0.8,1.9c-0.5,0.8-1,0.7-1.7,0.6c-0.2-0.3-0.2-0.3-0.1-0.5c-0.4-0.6-0.9-1.1-1.3-1.8c-0.7-0.1-0.7-0.1-0.8-0.4
			c0.2-0.3,0.3-0.7,0.5-1c0,0,0-0.1,0-0.2c-0.1-1.2,1.3-1.4,1.7-2.2l-0.2,0c-0.5-0.2-0.5-0.2-0.8-0.2c-0.1,0-0.1,0-0.3,0
			c-0.5,0-0.9-0.2-1.3-0.2c0,0-0.8-0.6-1.3-0.8l-0.2,0c-0.1,0-0.1,0-0.3,0c-0.1,0-0.3,0-0.4,0c0,0.2-0.1,0.3-0.1,0.5l0,0.2
			c0.4,0.1,0.4,0.1,0.8,0.3c-0.3,0.6-1,0.1-1.4,0.4c-0.5,0.3-0.9,0.7-1.3,0.9c-0.4,0.2-0.5,0.3-0.6,0.5c0,0,0,0.1,0,0.2
			c-0.1,0.6-0.4,1-0.4,1.2c-0.2,0.3-1.3,0.4-1.4-0.2c-0.2,0-0.4,0-0.6,0l-0.1-0.1c0-0.1,0-0.3,0-0.4c-0.1,0-0.3,0-0.5,0
			c-0.7,0.3-1.3,0.7-1.9,1.1c-0.7,0.4-1.1,1.2-2.1,1.2c0,0.1-0.1,0.3-0.1,0.5c0.2,0.5,0.2,0.5,0.2,0.5c0,0.1-0.1,0.3-0.1,0.4
			c-0.3,0-0.6,0-0.9,0c0.1-0.2,0.1-0.5,0.2-0.7c-0.2,0-0.4,0-0.6,0c-0.3,0.1-2.9,3.3-2.9,3.4c-0.1,0.2-0.2,0.3-0.9,0.5
			c-1.2,0.4-2.5,0-3.6,0.8c-0.5,0.4-1.3,0.4-1.8,0.8c-0.3,0.2-0.1,0.8-0.5,1c-0.2,0.1-0.3,0.1-0.9-0.2c0-0.1,0-0.3,0-0.4
			c-0.2,0.4-0.2,0.4-0.5,0.6l0,0.2c0,0.1,0,0.1-0.1,0.3c0,0.3,0,0.3-0.1,0.6c0,0.1,0,0.1-0.1,0.3c-0.5,0.4-0.8,0.7,0,2.3
			c-0.4,0.1-0.7-0.2-1.1,0c0,0.1-0.1,0.3-0.1,0.4c0.7,1.6,1.3,3.1,0.6,6.3c-0.1,0.3-0.2,0.5-0.3,0.7c-0.6,0-1.1,0.4-1.3,0.5l0,0.2
			c0.1,0,0.3,0,0.4,0c0.1,0.1,0.1,0.2,0.1,0.3c0.4,0.3,1.5,1.1,2.8,0c0.8-0.9,1.2-0.8,3.3-0.5c0.3,0,0.4,0.1,1.2-0.6
			c0.9-0.8,1.8-1.1,2.2-1.2c0.4-0.1,0.4,0,0.7,0.2c1.4-0.1,2.4-2,4.1-1c0.4,0.3,0.4,0.3,0.8,0.3c0.1,0,0.2,0,0.4,0
			c0.4,0,0.4,0,0.6,0.1c0,0.4-0.2,0.7-0.3,1.1c0.1,0,0.3,0,0.4,0.1c0,0,0,0-0.6,1.3l0.1,0.1c0.7-0.1,2.6-1.8,2.6-1.8l0.2,0.1l0,0.2
			c-0.4,0.5-1,0.8-1.3,1.3l0.2-0.1c0.3-0.2,0.3-0.2,0.7-0.2c-0.1,0.2-0.3,0.3-0.5,0.6l-0.2,0.1l-0.1,0.2c-0.3,0.3-0.3,0.3-0.4,0.5
			c0.3-0.1,0.5-0.4,0.9-0.4c-0.1,0.2-0.2,0.3-0.3,0.5l0.1,0.2l0,0.2l-0.1,0.2c0,0,0,0.1-0.2,0.2c-0.7,0.7-0.7,0.7-0.4,1.2
			c0.5,0,0.5,0,0.6,0c0,0.1,0,0.3,0.1,0.4c0.7,0.3,1.4-0.5,1.7-0.8c0.1,0,0.2,0,0.3,0.1c-0.1,0.2-0.3,0.4-0.5,0.7l0.2,0.1
			c3.4-1.1,3.4-1.1,5.3-2.7c0,0,0.1-0.1,0.2-0.2C148,181.1,151,179.7,153.2,177.3 M170.3,155.3L170.3,155.3l0-0.1l0-0.2l0-0.1l0-0.1
			l0,0l-0.1,0l0,0c-0.1-0.1-0.1-0.1-0.2-0.1c-0.1,0-0.1,0.1-0.2,0.1c0,0.1-0.1,0.3-0.1,0.4c0,0,0,0.1,0,0.2c0,0.1,0.1,0.1,0.2,0.1
			l0.1,0C170.2,155.4,170.3,155.3,170.3,155.3 M168.5,152.3L168.5,152.3c0-0.1,0.1-0.2,0.1-0.2c0-0.1,0-0.2,0-0.3
			c0-0.1,0.1-0.2,0.1-0.3l0-0.1l0-0.3c0,0-0.1-0.2-0.2-0.3c-0.1,0,0-0.1,0-0.2c0-0.1,0.1-0.2,0.1-0.4l-0.2,0l-0.2,0.1
			c0,0.4,0,0.4-0.1,0.5c0,0.1-0.1,0.2-0.1,0.3l0.1,0.3c0,0.1,0.1,0.1,0.1,0.2c0.1,0.2,0,0.3,0,0.5l0.1,0.1l0.1,0L168.5,152.3
			 M166.9,149.1c0-0.1,0-0.2,0-0.3c-0.1,0.1-0.3,0-0.4,0.1l-0.4,0.2c-0.2,0.1-0.1,0.4-0.2,0.5l-0.3,0.5l0,0c0,0,0,0-0.9,0.1l-0.2,0
			l-0.2,0c-0.2,0-0.4,0-0.6,0l-0.2-0.1c-0.1,0.2-0.2,0.3-0.2,0.4c-0.1,0.2-0.1,0.3-0.1,0.5l-0.1,0.1c0.2,0,0.4-0.1,0.6-0.1
			c0.2,0,0.3,0.1,0.5,0.1l0.7-0.1c0.2-0.1,0.2-0.2,0.3-0.3c0.1-0.1,0.1-0.1,0.1-0.1c0.2,0,0.2,0,0.3-0.1l0,0l0.1-0.1
			c0,0,0.2-0.3,0.3-0.5c0.1-0.2,0.2-0.4,0.2-0.6c0.1-0.1,0.2-0.2,0.2-0.3C166.8,149.3,166.9,149.2,166.9,149.1 M146.8,154.4
			c0.1-0.2,0.1-0.5,0.1-0.7c0-0.1-0.1-0.2-0.1-0.2c-0.6,0.2-0.9,0.5-0.9,0.5c0,0-0.2,0.5-0.2,0.7c0,0.1,0,0.2,0,0.2
			c0.2,0,0.4,0,0.7,0C146.5,154.8,146.7,154.7,146.8,154.4 M141.2,154.4L141.2,154.4l-0.1-0.3c-0.4,0-0.7,0-1.1,0
			c0,0.1-0.1,0.2-0.1,0.3c0,0.1,0.1,0.1,0.1,0.2l0,0l0.2,0c0.1,0,0.1,0,0.2-0.1c0.1-0.1,0.3,0,0.4,0.1l0.1,0
			C141.1,154.5,141.2,154.4,141.2,154.4 M150.5,151.4l0-0.1c0-0.1-0.1-0.1-0.2-0.2c-0.1,0.1-0.2,0.2-0.4,0.3l-0.2,0.2l-0.2,0.1l0,0
			c-0.1,0.1-0.1,0.2-0.1,0.3c0,0.1-0.1,0.2-0.1,0.3c0,0.1-0.1,0.2-0.1,0.3c0,0.1-0.1,0.1-0.1,0.2l0,0.1l0.1,0c0.1,0,0.2,0,0.4,0
			l0.1,0c0,0,0.1,0,0.2-0.2c0.1-0.1,0.1-0.2,0.1-0.3c0.1-0.2,0.2-0.3,0.3-0.5l0.1-0.1C150.4,151.6,150.5,151.5,150.5,151.4
			 M162.9,156.9c0.1-0.3,0.2-0.5,0.3-0.8c0-0.2,0-0.3-0.4-0.4c-0.1-0.2,0.1-0.5-0.2-0.7l-1.1-0.2c0.2-0.5,0.4-1.1,0.5-1.6
			c-0.4,0-0.5,0-0.8,0c0.1-0.4,0.3-0.8,0.4-1.2c0.3,0,0.4,0,0.7,0c0-0.1,0.1-0.3,0.1-0.4c-0.2-0.1-0.2-0.4-0.3-0.5
			c-0.1,0-0.3,0-0.4,0c-0.2,0-0.3,0-0.5,0c-0.1-0.4-0.1-0.7-0.1-1.1l0-0.1l-0.1-0.1c-0.1-0.1-0.1-0.1-0.5-1c-0.2-0.5-0.7-0.1-1-0.4
			c-0.1-0.1-0.1-0.1-0.1-0.3l-0.1-0.1c-0.2,0-0.2,0-0.5-0.1c-0.3-0.1-0.4-0.5-0.8-0.6c-0.3-0.1-0.7,0.1-1,0l-0.1,0h0h0l0,0h0h0h0
			l0,0h0l0,0h0h0h0h0h0h0l0,0c-0.8,0-1-0.9-1.7-1.1c-0.1,0-0.1,0-0.7,0.5c-0.3,0.2-0.6,0-0.9,0.2c-0.4,0.3-0.5,0.4-0.5,0.6
			c-0.1,0.9-0.7,0.8-1.6,0.8c-0.4,0-0.1-0.7-0.5-0.8c-0.3-0.1-0.6,0.2-0.9,0.3c-0.5,0-0.9,0-1.4,0c0,0.2-0.1,0.4-0.1,0.5
			c0.4,0.2,0.4,0.2,0.2,1.1c0.1,0,0.2,0,0.3-0.1l0-0.2c0.2-0.1,0.3-0.2,0.5-0.3c0.5,0.2,1.1,0.1,1.4,0.6c0.4,0.5,0.4,0.5,0.5,0.5
			c0.9-0.2,1.8,0.2,2.1,0.8c0.5,1.1,0.6,1.5,0.5,1.6c-0.2,0.7-0.3,0.8-0.6,1c-0.4,0.2-0.8,0.3-1.1,0.7c-0.1,0.1-0.1,0.1-0.1,0.5
			c0,0,0,0.8,1.1-0.1c0.2-0.3,0.3-0.6,0.7-0.5c0.2,0.1,0.3,0.2,0.3,0.3c0.1,0.4,0.2,0.4,0.5,0.5c0.3,0.1,0.5,0.3,0.7,0.5
			c0.3,0.2,1.1,0.2,1.4,0.1l0.4-0.3c0.2-0.2,0.2-0.5,0.3-0.8c0.8,0,0.9-0.9,1.6-1l0.1,0c0.1,0,0.8,0.5,0.9,0.7
			c0.3,0.7,0.2,1.5,0.4,2.3l0.1,0c0.1,0,0.6-0.1,1.1-0.2c0.2,0,0.2,0,0.4,0.6C162.4,157.1,162.7,157,162.9,156.9 M141.6,147.2
			L141.6,147.2L141.6,147.2c-0.1-0.1-0.1-0.1,0-0.6c-0.1,0-0.2,0-0.4,0c-0.2,0-0.5,0-0.7,0l-0.1,0.1c0,0.1,0,0.1-0.1,0.1l-0.2,0l0,0
			c-0.1,0.1-0.1,0.2-0.1,0.3c0.1,0.1,0.1,0.2,0.2,0.2c0.1,0,0.2,0,0.2,0c0.1,0,0.2,0,0.2,0c0.2,0,0.3,0.1,0.5,0.1
			C141.3,147.2,141.4,147.2,141.6,147.2 M153.3,146.7c0-0.1,0-0.2,0.1-0.3c-0.2,0-0.3,0-0.5,0c0.1-0.5,0.1-0.6,0.1-0.7l0-0.2
			c0-0.1,0.1-0.2,0.1-0.2c-0.1,0-0.3,0-0.4,0c-0.1,0-0.2,0-0.3,0c0,0,0,0.3,0,0.4l0,0.2c0,0.3-0.1,0.5-0.2,0.8
			C152.6,146.7,153,146.7,153.3,146.7 M147.5,146L147.5,146L147.5,146L147.5,146 M150.7,146.9L150.7,146.9c0-0.1,0.1-0.2,0-0.3
			c0-0.1-0.2,0-0.2-0.1c0-0.2,0-0.3,0.1-0.5c0.2-0.6,0.2-0.7,0.1-0.8c-0.1-0.3-0.8-0.3-0.8-0.3c-0.4,0-0.6,0.4-1,0.4
			c-0.2,0-0.5,0-0.7,0c-0.1,0-0.4,0.2-0.5,0.3l0.1-0.1c-0.1,0-0.2,0-0.3,0c-0.1,0-0.1,0-0.5,0.3c0,0.1,0,0.2,0,0.3
			c0.2,0,0.3,0.1,0.5,0.2c0.1,0.1,0.1,0.1,0.4,0.1c0.4-0.1,0.4,0.3,0.4,0.3c0,0.5,0,0.5,0.2,0.5l0.1,0c0.1,0,0.2,0,0.2,0
			c0,0,0.3,0,0.5-0.2c0.2,0,0.4,0.1,0.6,0.1c0.2,0,0.4,0,0.5,0C150.6,147.1,150.6,147,150.7,146.9 M148,144.5c0,0,0-0.2,0-0.3
			l-0.3-0.2l-0.1,0c-0.1,0-0.1,0-0.2,0l-0.2,0l-0.1,0c0,0.1,0,0.2-0.1,0.2c-0.1,0.1-0.1,0.2-0.2,0.3l-0.1,0.2
			c0.3,0.3,0.3,0.3,0.4,0.3l0.4,0C147.5,145.2,147.9,144.9,148,144.5 M146.7,147.5c0.1-0.3,0.1-0.5,0.2-0.8c-0.2,0-0.4,0-0.7,0
			c0,0.1,0,0.3-0.1,0.4l-0.1-0.3c0,0.1,0,0.2,0,0.3c0,0.1,0,0.3,0,0.4C146.4,147.5,146.5,147.5,146.7,147.5 M146.6,149.2
			L146.6,149.2c0.1-0.5,0.1-0.5,0.2-0.8c-0.3,0-0.5,0-0.8-0.1c-0.1,0-0.3-0.1-0.4-0.1c-0.1,0-0.2,0-0.2,0c-0.4,0-0.7-0.2-1.1-0.2
			c-0.2,0-0.2,0-0.5,0.6c0-0.1,0-0.2,0-0.3c0,0.1-0.1,0.2-0.1,0.3c0,0.1,0.1,0.1,0.1,0.2c0.2,0,0.5,0,0.7,0c0.2,0,0.3-0.1,0.5-0.1
			c0.1,0,0.1,0.1,0.2,0.1l0.2,0c0,0,0.1,0,0.6,0.2c0.1,0,0.1,0.2,0.2,0.2C146.2,149.3,146.2,149.3,146.6,149.2 M142.8,149.3
			c0-0.2,0.1-0.3,0.1-0.5l0-0.1c0-0.1,0-0.1-0.1-0.2c0,0-0.1,0-0.2-0.1c-0.1,0-0.2,0-0.3-0.1c-0.1,0-0.2-0.1-0.3-0.1l0,0
			c-0.1,0.2-0.1,0.4-0.2,0.5c0,0.1,0,0.2,0.1,0.3c0.3,0.2,0.3,0.2,0.4,0.2C142.5,149.4,142.6,149.4,142.8,149.3 M145.7,144
			c0-0.2,0-0.3-0.1-0.4c0-0.1-0.2-0.1-0.2-0.2l0,0l0-0.2c0-0.1,0-0.1,0.1-0.5c-0.2-0.1-0.2-0.1-0.7,0c0-0.1,0-0.3,0.1-0.4
			c0.1-0.3,0.2-0.4,0.2-0.4l0.1-0.1c0-0.1,0-0.1,0.1-0.6c-0.3,0.3-0.3,0.3-0.9,0.9c-0.1,0.1-0.1,0.1-0.3,0.1c-0.1,0-0.1,0-0.2,0.3
			l0,0.1c0,0.2,0.1,0.4,0,0.7l-0.2,0.7c0,0.1,0,0.1-0.1,0.2c-0.2,0.2-0.3,0.6-0.3,0.6l-0.1,0.9c0.1,0,0.1,0,0.2,0
			c0.1,0,0.1,0.1,0.2,0.1c0.1,0,0.1,0,0.5-0.1c0.2-0.6,0.2-0.6,0.2-1.4c0.3-0.2,1-0.1,1.2,0C145.7,144.3,145.7,144.2,145.7,144
			 M139.1,146.4c0.1-0.5-0.9-1.1-0.9-1.1c-0.1,0-0.2,0-0.2,0l-0.2,0c0,0-0.3,0.1-0.5,0.3c0,0-0.4,0.6-0.9,0.7
			c-0.2,0-0.8-0.1-0.8-0.1c-0.2-0.1-0.4-0.2-0.6-0.3c-0.1,0-0.2,0-0.2,0c-0.1,0-0.7,0.6-0.7,1c0,0.1,0,0.2-0.1,0.2l0,0.1
			c-0.1,0.1-0.1,0.5-0.1,0.5c0,0.2,0,0.2-0.3,0.4l-0.2,0l-0.1,0.1c-0.5,0.5-0.6,1.3,0.8,1.2c0,0.1,0,0.1,0,0.2
			c0.1,0.5-0.4,0.8-0.5,1.2c0,0.3,0,0.3,0,0.3l0.1,0.1c0.1,0,0.1,0,0.2,0.7c0.4-0.2,0.5-0.4,0.5-0.4s0-0.1,0.1-0.2
			c0.1-0.3,0.1-0.6,0.1-0.9c0-0.1,0.1-0.2,0.2-0.3c0.1-0.6,0.2-1.1,0.3-1.7c0.2,0,0.5,0,0.7,0c0,0.2-0.1,0.4-0.1,0.6l-0.2,0.3
			c0,0.1,0,0.2,0,0.3c1,0.2,1,0.2,1.2,0.2c0,0.2-0.1,0.4-0.1,0.5c-0.1,0.2-0.2,0.3-0.3,0.5c0,0.1,0,0.2-0.1,0.3
			c0,0.1-0.1,0.6,0.4,0.6c0.2,0,0.5,0,0.8,0c0-0.1,0.1-0.2,0.1-0.3c0-0.1,0-0.2,0.1-0.4c0-0.2,0.1-0.5,0.1-0.6
			c0-0.1-0.2-0.1-0.2-0.2c-0.1-0.1-0.1-0.2-0.2-0.2c-0.3-0.3-0.3-0.3-0.1-1c0-0.1,0-0.2,0-0.3c0.1-0.3,0.1-0.3-0.3-0.7
			c-0.1-0.1-0.3-0.1-0.5-0.2l0-0.3c0-0.1,0.1-0.3,0.1-0.5c0.2,0,0.4,0,0.7,0c0.3,0,0.5-0.3,0.8-0.3c0.3,0,0.6,0.1,0.8,0l0,0
			C139,146.7,139.1,146.6,139.1,146.4 M141.5,142.9L141.5,142.9c-0.1-0.1-0.1-0.1-0.2-0.1c-0.3,0-0.3,0-0.5,0.4
			c-1.4,0-2.7,0.1-4.1,0.1c-0.3,0.1-0.4,0.5-0.8,0.5c-0.9,0.1-0.9,0.1-0.9,0.1c-0.1,0-0.2,0.1-0.2,0.1c-0.4,0.3-0.4,0.7-0.3,1
			c0.3-0.2,0.7-0.3,1-0.5c0.1-0.1,0.1-0.2,0.3-0.3c0.5-0.3,0.5-0.3,0.6-0.2c0.1,0,0.1,0,0.2,0c0.1-0.1,0.2-0.2,0.2-0.3l0.5,0.1
			c0.5,0,1,0,1.5,0c0.1,0,0.5,0.2,0.6,0.3c0.1,0.1,0.1,0.2,0.2,0.1c0.2,0,0.4-0.1,0.6-0.2c0.1-0.1,0.1-0.3,0.4-0.3l0.1,0
			C140.9,143.8,141.2,143.6,141.5,142.9 M137.3,157.1L137.3,157.1L137.3,157.1 M141.8,155.3L141.8,155.3l-0.2-0.1
			c-0.1-0.1-0.1-0.2-0.2-0.2c-0.1,0-0.3-0.1-0.6,0c-0.3,0-0.4,0.1-0.4,0.2c-0.1,0.1-0.1,0.1-0.5,0.2c-0.2,0.1-0.3,0.2-0.5,0.2
			c-0.2,0-0.3,0-0.5,0.1c-0.1,0-0.1,0.1-0.1,0.1c0,0.1,0,0.2-0.3,0.2c-0.5,0-0.5,0-0.6,0c-0.1,0.1-0.2,0.2-0.3,0.3
			c-0.2,0.1-0.4,0.3-0.4,0.3l-0.1,0.1l0,0.1l0,0.1l0-0.1c-0.1,0.4-0.1,0.4,0,0.4c0,0,0.6,0.3,0.8,0.2c0.1,0,0.1-0.1,0.2-0.3
			c0.1-0.1,0.9-0.8,0.9-0.8c0.3-0.2,0.7-0.1,1-0.3c0.2-0.1,0.3-0.3,0.5-0.4c0,0,0.3-0.1,0.6-0.1
			C141.6,155.6,141.7,155.6,141.8,155.3L141.8,155.3 M136.7,158.5c0-0.1,0.1-0.3,0.1-0.4l0-0.2c-0.2,0-0.2,0-0.8,0.3
			c0,0.3,0,0.3,0,0.4C136.3,158.5,136.5,158.5,136.7,158.5 M138.8,155L138.8,155c0-0.1,0-0.2,0-0.3h-0.2c-0.1,0-0.1,0-0.2,0.1
			c-0.1,0.1-0.1,0.1-0.2,0.1c0,0,0,0-0.5,0c-0.2,0-0.4,0.1-0.7,0.1c-0.1,0-0.2,0-0.2,0c-0.3,0-0.6,0.2-0.8,0.2c-0.1,0-0.3,0-0.4-0.1
			c-0.2-0.3-1.1-0.3-1.5-0.1c-0.2,0.1-0.3,0.2-0.5,0.3c-0.1,0-0.2,0-0.3,0c0.2,0.1,0.2,0.4,0.5,0.5c0.1,0,0.1,0,1.3,0l0.2,0
			c1,0,1,0,1.1,0c0.2,0,0.5-0.1,0.7-0.1l0.1-0.1c0.1-0.1,0.2-0.2,0.3-0.3l0.4,0C138.5,155.2,138.5,155.2,138.8,155 M134.2,157.4
			L134.2,157.4c0.1-0.1,0.1-0.2,0.1-0.3c-0.4-0.1-0.5-0.1-0.5-0.2c0-0.1,0-0.2,0-0.2l-0.1,0l-0.3-0.1c-0.1-0.1-0.1-0.2-0.1-0.2
			c-0.1,0-0.2-0.1-0.4-0.1c-0.1,0-0.1,0-0.5,0.3c0.1,0.3,0.1,0.3,0.2,0.3c0.1,0.1,0.1,0.2,0.2,0.3c0,0.1,0,0.2,0.1,0.2
			C133,157.5,133.1,157.5,134.2,157.4 M132.7,155.5L132.7,155.5L132.7,155.5c-0.1-0.1,0-0.2,0-0.3c-0.5,0-0.5,0-0.6-0.1l-0.1,0l0,0
			c-0.1,0-0.1,0-0.2,0c-0.1,0-0.3-0.1-0.4-0.1c-0.1,0-0.2,0-0.3,0c-0.1,0-0.1,0-0.2,0.1c-0.1,0.1-0.2,0.2-0.3,0.2l0,0
			c-0.2,0.1-0.4-0.1-0.6,0c-0.1,0-0.2,0.1-0.2,0.1c-0.2,0.2,0.1,0.5,0.3,0.5c0.1,0,0.9,0,0.9,0c0,0,0.3-0.1,0.4-0.3
			c0.1-0.1,0.1-0.1,0.2-0.1c0.2,0,0.3,0.1,0.5,0.1C132.2,155.5,132.2,155.5,132.7,155.5 M128.7,155.8L128.7,155.8
			c-0.2-0.6-0.2-0.8-0.4-0.7c-0.3,0-0.4-0.2-0.5-0.5c-0.6,0-1.3,0-1.9,0c0.1-0.8,1-0.6,1.5-0.9c-0.3,0-0.5-0.2-0.8-0.2l-1.2,0
			c-0.7-0.1-1.3-0.4-2-0.5c-1.9,0.1-4.5,0.2-6.4,0.3c0,0.1,0,0.2,0,0.3c0.3,0,0.5,0,0.8,0c0,0.2,0,0.4,0,0.6c0.6,0,0.6,0,0.7,0
			c0.3,0.2,0.4,0.6,0.8,0.7c0.5,0.1,0.9-0.3,1.4-0.3c0.4,0,0.7-0.1,1.1-0.1c0.2,0.1,0.2,0.4,0.4,0.4c0.5,0.1,1-0.3,1.5,0.1
			c0.6,0.5,0.6,0.5,1.4,0.5c0.1-0.4,0.1-0.4,0.2-0.5c0.3-0.1,0.4,0.2,0.7,0.2c0.1,0,0.2,0,0.3,0c0.9-0.3,1.3,0.7,2.1,0.7
			c0.1,0,0.2,0,0.3,0L128.7,155.8 M113.1,152.2c0-0.1,0-0.2,0-0.2l-0.1-0.2c0-0.1,0-0.2,0-0.3c0,0.1-0.2,0.1-0.2,0.2
			c0,0.1,0,0.2,0,0.3L113.1,152.2 M135,138.3L135,138.3c0-0.5,0-0.5-0.1-0.6c-0.2-0.1-1.1-0.1-1.1-0.1c-0.2,0-0.7-0.4-0.7-0.4
			c0-0.2,0.1-0.3,0.1-0.5l-0.4-0.7l-0.6-0.2c-0.3,0.8-1.1,0.9-1.6,1.5c-0.5,0.5-0.6,1.3-1.1,1.7c-0.4,0.3-0.9,0.1-1.3,0.4
			c-0.3,0.3-0.7,0.6-0.7,0.9l-0.1,0.1c-0.4,0.2-0.7,0.7-1.1,0.9c-0.3,0.1-0.4,0.1-1,0.1c0,0.5-0.1,0.9-0.2,1.4
			c-0.5-0.1-1,0.2-1.4,0.1c-0.2,0-0.3-0.1-0.5-0.5l-0.3-0.1c-0.1,0-0.2,0-0.3,0c-0.1,0-0.2,0-0.3,0.1c0,0.7,0,0.7-0.1,0.8
			c-0.1,0.2-0.3,0.3-0.4,0.5l-0.2,1.1c-0.1,0.9,1.3,0.9,1.1,1.9l0.1,0.1c0,0.1,0,0.2,0,0.3c-0.2,0.6-0.3,1,0,1.3
			c0.5,0.4,1.1,0.1,1.6,0.3c0.1,0.4,0.3,0.6,0.4,0.6c0.7,0.2,1.2-0.4,1.9-0.3l0.1,0c0.1,0,0.1,0,0.4,0.4c0.2,0.3,0.5-0.2,0.7-0.1
			c0.1,0,0.3,0.2,0.4,0.4c0.1,0.1,0.1,0.1,0.3,0.2c0.1,0,0.1,0,0.5,0c0.1,0,0.2,0,0.4,0l0.1-0.1c0-0.2,0-0.3,0.1-0.5
			c0-0.1,0-0.1,0.6-0.5c0.4-0.3,0.3-0.8,0.2-0.9c-0.1-0.1-0.2-0.4-0.2-0.4l0.7-0.9c0.1-0.2,0.2-0.2,0.4-1c0.2,0,0.5,0,0.7,0
			c0.1-0.5,0.1-0.9,0.2-1.4c2.2,0,1.5-0.8,1.4-0.9c-0.4,0-0.4,0-1.1,0c-0.1-0.3-0.1-0.3,0.1-0.7c0-0.1,0-0.3,0-0.5
			c0.1-0.4-0.2-0.7-0.2-1.1c0-0.5,0.1-0.9,0.1-1.4c0.6,0,0.6,0,1,0C133.8,138.9,133.8,138.8,135,138.3 M111,149.7c0-0.3,0-0.7,0-1
			c-0.1,0-0.2-0.1-0.2-0.1c-0.1-0.1-0.1-0.2-0.2-0.3c0,0-0.3-0.1-0.5-0.1c-0.4,0.1-0.6-0.7-0.6-0.7c-0.1-0.4,0.1-0.7,0-1.1
			c-0.1-0.1-0.1-0.1-0.5-0.3c-0.3,0.5-0.2,0.9-0.1,1c0.2,0.4,1.2,1.7,1.3,1.8c0.3,0.1,0.3,0.1,0.4,0.3
			C110.7,149.7,110.8,149.7,111,149.7 M106.8,143.8L106.8,143.8l-0.1-0.2C106.8,143.6,106.8,143.7,106.8,143.8L106.8,143.8
			 M108,144.9l0-0.3c0-0.3-0.1-0.5-0.1-0.6c-0.1-0.1-0.2-0.1-0.2-0.2c-0.1-0.1-0.2-0.3-0.3-0.4l-0.1-0.1c-0.1-0.1-0.2-0.1-0.3-0.1
			l0,0c-0.2,0.3-0.2,0.4,0.3,0.8c0.1,0.1,0.2,0.2,0.3,0.2c0.1,0.1,0.2,0.1,0.3,0.2c0.1,0.1,0.2,0.3,0.2,0.4l0,0.1L108,144.9
			 M106.2,142.5c0-0.1,0.1-0.2,0.1-0.3c-0.1-0.1-0.3-0.1-0.4-0.3l0-0.1c0-0.1,0-0.1-0.1-0.3l-0.3-0.2c0,0.1-0.1,0.2-0.1,0.3
			c0,0.1,0.1,0.1,0.1,0.2l0,0.2l0,0.2l0,0.1l0,0l0,0c0,0.1,0.2,0.1,0.3,0.1h0h0h0h0h0h0h0h0L106.2,142.5 M119.1,148.8
			c0,0-0.1-0.7-0.5-0.6c-0.5,0-0.4-0.1-0.1-0.7l0-0.1c0,0-1.3-1.1-1.6,0.3c-0.2,0-0.5,0-0.7-0.1c0-0.4,0.3-0.9-0.1-1.2
			c-0.1,0-0.2,0-0.3,0c-0.6,0-0.6,0-0.7,0c0,0-0.8-0.6-0.8-0.8c0-0.4,0-0.9,0-1.4c-0.9,0.1-0.9,0.1-1.4-0.4c-0.4-0.4-0.1-1-0.4-1.4
			c-0.1,0-0.2,0.1-0.3,0.1c-0.1,0-0.2,0-0.3,0c-0.4,0-0.7,0-1.1-0.5l-0.1-0.3c-0.5-0.2-0.7-0.7-1.1-1.1c-0.7-0.6-0.7-0.6-0.8-0.6
			c-0.2,0-0.3,0-0.5-0.1c-0.2-0.2,0-0.4-0.1-0.6c-0.1,0-0.5-0.1-0.8-1c-0.4,0-0.8,0.4-1.3,0.3c-0.6-0.1-0.8-0.7-1.4-0.8
			c-0.6,0.2-0.3,0.6,0.5,1.5c0.4,0.5,1.1,0.8,1.6,1.3c0.4,0.5,0.4,0.5,0.6,1c0.2,0.5,0.2,0.6,0.7,0.5c0.4,0,0.6,0.2,0.6,0.3
			c0.3,0.4,0.3,0.4,0.3,1.3c0,0.1,0,0.2,0,0.3c0.3,0.8,1.3,1,1.7,1.7c0.3,0.4,0.6,0.7,0.8,1.2c0.2,0.5,0.2,1,0.4,1.5
			c0.5,0.8,1.3,1.2,1.8,1.9c0.6,0.9,0.6,0.9,0.9,1.1c0.8,0.6,0.8,0.6,0.8,0.9l1.6-0.2c0.1,0,0.5-0.5,0.5-0.5c0-0.1,0-0.2,0-0.3
			c0.1-0.7,0.1-0.7,0.2-1.5c0-0.1,0-0.2,0-0.3c0.2-0.7,1-0.3,1.4-0.5L119.1,148.8 M143.7,135.7l0.2-0.3l-0.2-0.5
			c0.1-0.7,0.1-1.4,0.2-2.1c0-0.2-0.1-0.9-0.6-0.9c-0.1,0-0.2,0.1-0.3,0.3c-0.1,0.2-0.1,0.5-0.3,0.6c0,0-0.4,0.3-0.6,0.2
			c-0.2-0.1-0.5,0.2-0.7,0.5c-0.1,0.4-0.1,0.4-0.8,0.4c-0.2,0,0-0.3-0.1-0.4c-0.2,0-0.6,0.1-0.8,0.2l0,0.3c-0.2,0.2-0.3,0.2-0.6,0.2
			c-0.6,0-0.8,0.7-0.8,0.7c0,0.5-0.1,0.9-0.1,1.4c0.1,0.1,0.2,0.1,0.2,0.2c0.1-0.1,0.2-0.2,0.2-0.3c0-0.1,0-0.2,0-0.3
			c0-0.1,0-0.2,0-0.3c0-0.3,0-0.3,0-0.3l0.6-0.3c0.2-0.1,0.2-0.1,1.2,0c0,0.2,0,0.4,0,0.6c-0.1,0.7-0.1,0.7,0,0.8l0.1,0.1
			c0.1,0.1,0.3,0,0.4,0.1c0.1,0.1,0.2,0.2,0.3,0.3c0.1,0.1,0.1,0.1,0.3,0.1c0.1,0,0.1,0,0.3,0.3c0,0.1,0,0.2,0,0.3
			c0.1,0,0.1-0.1,0.2,0c0.1,0,0.1,0.1,0.2,0.2l0.2-0.1c0-0.2,0-0.4,0.1-0.5c0-0.3-0.1-0.3-0.2-0.4c-0.1,0-0.1,0-0.2-0.9
			c0.1,0,0.1-0.2,0.2-0.2c0.1,0,0.1,0,0.3,0.1C143.1,135.6,143.3,135.7,143.7,135.7L143.7,135.7 M140.9,132.2c0-0.3,0-0.6,0.1-0.8
			c0-0.2-0.1-0.3-0.3-0.5c-0.3-0.1-0.3-0.1-0.4-0.2c-0.2-0.2,0.1-0.5-0.2-0.7c0,0-0.3-0.3-0.5-0.3c-0.1,0-0.1,0-0.1-0.1
			c-0.1-0.1-0.1-0.2-0.1-0.4c0-0.1-0.1-0.2,0-0.5c0-0.3,0-0.4-0.4-0.8c-0.2-0.2-0.6-0.3-0.8-0.5c-0.1-0.2-0.2-0.3-0.4-0.4l0,0
			c0,0,0,0-0.5-0.1c-0.2,1.2,0.2,1.2,1,1.1c0,0.8,0,0.8,0.1,1.1c0,0,0.2,0.6,0.1,1c-0.1,0.5-0.1,0.5-0.1,0.5c0.3,0.8,1,0.7,1.2,0.6
			c0,0.1-0.1,0.1-0.2,0.2l-0.2,0.6c0,0.1,0,0.3,0.1,0.4c0.5,0.4,0.9,0.2,0.9,0.2c0.1-0.1-0.1-0.2,0.1-0.3
			C140.4,132.2,140.4,132.2,140.9,132.2 M143.3,129.8L143.3,129.8c-0.1-0.7-0.1-0.9-0.4-1.1c-0.2-0.2-0.2-0.2-0.2-0.2
			c0-0.1,0-0.1-0.1-0.3c-0.3-0.7-0.8-0.7-0.8-0.7c-0.1,0-0.1,0-0.1,0c0-0.1-0.1-0.2-0.1-0.3c0-0.1,0.1-0.2,0.1-0.3
			c0-0.3,0-0.6,0-0.8c-0.1,0-0.2,0.1-0.3,0.1c-0.1,0-0.2-0.1-0.2-0.1c-0.1,0-0.2,0-0.2,0c-0.1,0-0.1,0-0.2,0c-0.3,0-0.4,0.2-0.4,0.2
			c0,0.1,0,0.2-0.3,0.3c0,0-0.7,0.1-0.9,0.2c0.2,0.2,0.8,0.6,0.8,0.6c0.3,0.2,0.3,0.2,0.4,0.1l0.1,0c0,0.1,0,0.2,0,0.3
			c0.1,0.1,0.3,0.2,0.4,0.3c0.2,0.3,0,0.7,0.2,1c0.1,0.1,0.2,0.1,0.2,0.1c0.2,0.1,0.3,0.3,0.5,0.5c0,0,0.1,0,0.1,0.1
			c0.1,0,0.1,0,0.2,0.2c0.1,0.2,0.1,0.2,0.1,0.7c0.3,0,0.7,0,1,0C143.2,130.3,143.2,130.3,143.3,129.8 M136.6,128.1l0-0.1
			c-0.1,0.2-0.1,0.3-0.3,0.5c-0.4,0.4-0.4,0.4-0.3,0.6c0,0.1,0,0.1-0.4,0.7c-0.1,0.1-0.2,0.1-0.3,0.2c-0.1,0.2-0.2,0.4-0.3,0.6
			c-0.1,0.1-0.2,0.1-0.2,0.1c-0.1,0.1,0,0.1,0,0.2c0,0,0,0.4-0.1,0.5c-0.1,0.1-0.2,0.2-0.3,0.3c-0.1,0.1-0.1,0.3-0.2,0.4
			c-0.2,0.1-0.4,0.1-0.5,0.2c0,0.2-0.2,0.7-0.7,0.6c-0.2,0-0.4,0.3-0.6,0.9l0.1,0c0.3,0.1,1.2-0.1,1.1-0.7c0,0,0-0.8,1.5-0.8
			c0.1-1.6,0.8-1.9,1-1.9c0.1,0,0.2-0.1,0.2-0.2L136.6,128.1 M139.6,121.8v-0.2c0-0.2,0-0.2,0-0.3l-0.1-0.2l-0.1-0.1l0-0.1l-0.1-0.2
			l-0.1-0.2l0-0.1l-0.1-0.1l-0.1-0.1l-0.2-0.1l-0.2-0.1l-0.1,0h0h0h0h0h0h0l0,0h0c-0.1,0-0.1,0-0.2,0l-0.1-0.1l-0.1-0.2
			c-0.3-0.2-0.3-0.2-0.4-0.2c-0.2,0-0.4,0-0.6,0l0,0.1l0,0.1l0,0.2l0,0.1l0,0.2v0.1c0.1,0.2,0.1,0.2,0.1,0.4v0.1l-0.1,0.2
			c-0.1,0.1-0.2,0.3-0.1,0.8c0.1,0.4,0.1,0.4-0.1,0.5c-0.2,0.2-0.5,0.3-0.7,0.5l-0.1,0.2v0.2l0,0.2c0,0,0.1,0.3,0.5,0.7
			c0.3,0.3,0.5,0.4,0.5,0.4l0.1,0.1l0.1,0c-0.4,0.8-0.1,1,0.1,1.1c0.1,0,0.2,0.1,0.4,0.1c0.2,0,0.4,0,0.6,0c0-0.2,0-0.3,0-0.5
			c0-0.1,0-0.2-0.1-0.4c0-0.2,0-0.4,0-0.7c0-0.3,0.4-0.6,0.5-0.6l0.1-0.1l0.1-0.2l0.1-0.2c0.3-0.5,0.4-1.1,0.4-1.1V122L139.6,121.8
			 M138.9,110.7c0-0.1,0-0.2,0-0.3c0-0.1-0.1-0.1-0.1-0.2c0-0.1,0-0.3,0-0.4c-0.5,0-0.5,0-0.7,0c-0.2,0-0.2,0.2-0.3,0.3
			c-0.1,0.1-0.3,0.2-0.4,0.3l0,0c-0.1,0.2-0.2,0.4-0.3,0.6c-0.1,0-0.2,0.1-0.3,0.1c0,0-0.2,0.5-0.2,0.8c0,0.8,0.1,1.6,0.1,2.5
			c0.3,0,0.5,0,0.8,0c0-0.7,0-0.7,0.1-1.2c0-0.1,0.2-0.2,0.3-0.3c0.1-0.3,0.1-0.3,0.1-0.5c0-0.1,0-0.1,0-0.1
			c0.1-0.2,0.2-0.2,0.3-0.4c0.1-0.3,0.1-0.3,0.3-0.5c0,0,0.3-0.4,0.3-0.5C138.9,110.9,138.9,110.8,138.9,110.7 M160.2,79.3
			c0-0.1-0.1-0.2-0.1-0.2l-0.1,0c-0.4,0.2,0.1,0.7-0.2,0.9c-0.5,0.4-0.5,0.4-0.8,0.4c-0.1,0-0.1,0-0.2,0.1l-0.1,0.1
			c-0.1,0-0.1,0-0.3,0l-0.2,0c-0.2,0.3-0.3,0.8-0.6,0.7c0,0-0.4-0.1-0.7-0.3c-0.5-0.2-0.8-0.7-1.2-1c-0.4-0.2-0.9-0.2-1.3-0.5
			c-0.1,0.8,0.6,1.4,0.7,2.1c-0.4,0.5,0.2,1.2-0.3,1.7c-0.2-0.1-0.3-0.3-0.5-0.4c0,0.2,0,0.3,0,0.5l-0.1,0c-0.5,0.1-0.2,1.6,0.9,2.1
			c0,0,0.1,0,0.2,0l0.2-0.2c0.1,0.2,0.1,0.4,0.2,0.6c-0.2,0-0.5,0-0.7,0c0,0.2,0.1,0.4,0.1,0.5c0,0.1,0.1,0.2,0.1,0.4
			c0.2,0.3,0.1,0.7,0.2,1.1c0.1,0.3,0.2,0.6,0.3,0.9c0.3,0.9,0.2,0.9-0.3,0.9c-0.3,0.5-0.3,1.1-0.6,1.6c-0.2-0.3-0.1-0.7-0.2-1
			l-0.1,0.2c0.1,0.6,0.1,0.6,0.1,0.8c-0.3,0-0.5,0-0.8,0c0.1,0.4,0.2,0.7,0.2,1.1c-0.3,0-0.6,0.1-0.7-0.8c-0.1,0-0.2,0-0.2,0
			c-0.1,0.2-0.1,0.2,0,0.5l0,0c0.1,0.7,0.1,0.7-0.5,0.7c0.1,0.5,0.2,1.1,0.3,1.6l-0.5,0c-0.1,0-0.2-0.1-0.2-0.1
			c-0.2-0.6-0.6-0.4-0.6-0.4c-0.2,1-1.3,0.5-2,0.7c-1.1,0.4-1.1,0.4-0.9,1.7c-0.3,0-0.7,0-1,0.1c0,0.2,0,0.2,0.1,0.8
			c-0.4,0-0.7,0.1-0.8,0.2c-1,1.7,0.2,1.5,1,1.4l0-0.1c0.1,0.5,0.1,0.5-0.1,0.9c-0.2,0.6-0.5,1.6,0.5,1.7c0.1,0,0.3,0,0.4,0
			c-0.2-1.3-0.2-1.3,0.5-1.7c0.3-0.2,0.3-0.4,0.3-0.4c-0.1-0.6-0.4-1-0.5-1.6c-0.2,0-0.5,0.1-0.7,0c0-0.1,0-0.2,0-0.3
			c0.4-0.3,0.4-0.3,0.8-0.3c0.7,0,1-0.7,1.6-0.9c0.5-0.2,1.1,0,1.7-0.2l0.1-0.1c0,0.1-0.1,0.2-0.1,0.2c-0.2,0.1-0.5,0-0.7,0.1
			c-0.3,0.1-0.4,0.4-0.7,0.6l-0.1,0c-0.4,0-0.7,0-1.1,0c0.1,0.6,0.2,1.2,0.3,1.8c0.1,0,0.3,0,0.4,0c0.3-0.1,0.6-0.4,0.6-0.4
			c0.2-0.2,0.2-0.5,0.4-0.7c0.2-0.3,0.6,0,0.8-0.2c0.1-0.1,0-0.4,0-0.5c0-0.1,0.1-0.1,0.2-0.1c0.7,0.8,0.7,0.8,0.7,0.8
			c0.5,0,0.4-0.7,1-0.7c0.1-0.3,0.1-0.3-0.2-1.1l0.2-0.1c0.7,0,1.7,0,2.4-0.1c0.3-0.5,1.2-0.4,1.2-1.2c-0.1-0.4-0.2-0.9-0.3-1.3
			c0-0.4,0.1-0.7,0.2-1.1l-0.1-0.3c0-0.2-0.1-0.4-0.2-0.5c0-0.1-0.1-0.3-0.1-0.4c-0.1-0.5-0.1-0.5,0.3-0.7c0-0.1,0.1-2-0.4-2.9
			c0,0-1.2-2.3-2.2-2.5c0-0.1-0.1-0.3-0.1-0.4c0.3,0,0.6,0,1,0l0.2-0.2c0,0,0.1,0,0.1,0c0.6,0.3,0.6,0.3,0.7,0.3
			c0.2,0.3,0.2,0.3,1.1,0.3c0-0.3,0-0.3-0.3-1c0.3,0,0.7,0,1-0.1c0.2-0.2,0.2-0.2,0.5-0.3c0-0.4-0.3-0.8-0.3-1.3
			c0.3-0.2,0.3-0.2,0.7-0.2c0.1-0.3,0.1-0.3,0.6-0.4c0.1,0,0.1,0,0.2,0c0.1,0,0.2-0.1,0.2-0.1C160.2,79.5,160.2,79.5,160.2,79.3
			 M161.1,77.8L161.1,77.8l-0.1,0c0,0,0,0-0.1,0.1c0,0.1,0,0.1-0.1,0.2c0,0.1,0,0.1-0.1,0.2c0,0.1,0,0.1-0.1,0.2
			c0.2,0.1,0.2,0.1,0.3,0.2c0.3,0,0.3,0,0.3-0.1c0-0.1-0.1-0.2-0.1-0.3C161.1,78.1,161.1,77.9,161.1,77.8 M161.7,71.3
			c0-0.1-0.1-0.1-0.1-0.2l-0.2,0c0,0,0,0,0.1,0.3c0,0.1,0,0.2,0,0.2c0,0.1,0.1,0.2,0.1,0.3c0,0.1,0,0.2,0,0.4c0,0.1,0,0.2,0.1,0.2
			l0.1,0l0,0c0,0,0-0.1,0-0.2c0-0.1,0-0.2,0-0.2c0-0.1,0-0.1,0-0.2l0-0.1c0-0.1-0.1-0.1-0.1-0.2C161.8,71.6,161.8,71.5,161.7,71.3
			L161.7,71.3 M164.1,64.7l-0.1-0.1c-0.2-0.2-0.2-0.2-0.3-0.3l-0.1,0l-0.1,0l0,0h0c0,0,0,0,0.4,0.6c0.1,0,0.2,0,0.3,0L164.1,64.7
			 M163.5,65.1c0.1,0,0.2,0,0.3,0c0,0-0.2-0.2-0.3-0.3c-0.2-0.2-0.3-0.4-0.5-0.6c-0.2-0.2-0.5-0.5-0.7-0.6c0.1,0.2,0.3,0.4,0.4,0.5
			c0.1,0.1,0.2,0.1,0.2,0.2C163,64.5,163.3,64.8,163.5,65.1 M157.7,58.8l-0.2-0.3l-0.2-0.1l0,0l-0.1,0.1l-0.1,0l0,0
			c0,0.2,0.1,0.3,0.2,0.4c0.1,0.1,0.2,0.3,0.3,0.4l0.1,0l0.2-0.1c0,0,0,0-0.1-0.3l0-0.1L157.7,58.8 M157.3,51.8
			c-0.1-0.1-0.3-0.2-0.4-0.4c-0.1,0-0.1-0.1-0.2-0.1l-0.1-0.1l0,0l-0.1,0l-0.1-0.1l0,0l-0.1,0l0.1,0.2l0.4,0.3l0,0l0,0v0
			c0.1,0,0.1,0.1,0.2,0.2c0.1,0.1,0.1,0,0.1,0l0,0l-0.1-0.1L157.3,51.8L157.3,51.8L157.3,51.8L157.3,51.8 M142,42.2
			c-0.1-0.1-0.2-0.1-0.4-0.2c-0.3-0.1-0.5-0.3-0.6-0.2l-0.1,0l0,0c-0.2,0-0.3-0.2-0.4-0.2l0,0c0,0,0,0,0.1,0.1
			c0.1,0.1,0.2,0.1,0.3,0.2v0l-0.1,0c0.1,0.1,1,0.6,1.1,0.6l0.2-0.1l-0.2-0.1l-0.1-0.1l0,0l0,0L142,42.2L142,42.2L142,42.2L142,42.2
			 M126.9,38.9c-0.1-0.1-0.3-0.1-0.4-0.2c-0.1,0-0.2-0.1-0.2-0.1c-0.1-0.1-0.3,0-0.3,0l-0.1,0.1l-0.1,0l-0.1,0l-0.1,0l0,0
			c-0.2-0.1-0.4-0.2-0.5-0.3c-0.3,0-0.3,0-0.3,0l0,0l0.2,0.1l0,0c-0.2,0-0.2,0-0.9-0.3l0,0.1c0.3,0.2,0.6,0.3,0.8,0.5
			c0.2,0.1,0.4,0.1,0.6,0.2c0,0,0.2,0.1,0.2,0.1c0.1,0,0.1,0,0.1,0l0-0.1c0.1,0,0.5,0.2,0.5,0.2c0.1,0.1,0.1,0.1,0.2,0.1
			c0.4,0.1,0.4,0.1,0.4,0.1l0.1,0h0.1l0,0c0,0-0.1-0.1-0.2-0.2l0,0L126.9,38.9 M127.4,40.9c-0.4-0.3-0.5-0.4-1-0.5h0
			c-0.1,0-0.2,0-0.2,0c-0.2-0.1-0.2-0.1-0.3-0.1c-0.1,0-0.1-0.1-0.1-0.1l0,0l-0.1,0c-0.2,0-0.2,0-0.2,0c0,0.1,0.1,0.1,0.2,0.2
			l-0.1,0c0,0.1,0.1,0.2,0.1,0.3l0,0c0.2,0,0.4,0,0.4,0l0.1,0l0.1,0l0.2,0l0,0l0,0h0c0.2,0.1,0.4,0.2,0.7,0.2L127.4,40.9
			 M124.8,39.8l-0.2-0.1l0,0l-0.1,0c-0.1,0-0.2-0.1-0.3-0.1l-0.2,0l0.2,0.1l0.1,0.1l0.1,0c0.3,0.1,0.3,0.1,0.3,0.1l0.1,0l0,0l0-0.1
			L124.8,39.8 M123.7,38.2c-0.3-0.2-0.3-0.2-1-0.2l0,0l0,0c0.3,0.2,0.6,0.4,0.8,0.6c-0.1,0-0.1,0-0.2,0c-0.2-0.1-0.4-0.2-0.5-0.3
			c-0.2-0.1-0.4-0.3-0.6-0.4c0,0-0.3-0.1-0.4,0l0,0c0.2,0.1,0.3,0.2,0.5,0.3c-0.1,0-0.3,0-0.4,0c-0.2-0.1-0.4-0.2-0.6-0.2
			c-0.1,0-0.1-0.1-0.2-0.1l-0.1,0l0,0l-0.1,0l0,0c-0.1,0-0.2,0-0.4,0c0.1,0,0.1,0,1.3,0.9l-0.2-0.1c0.1,0.1,0.3,0.1,0.4,0.2l0,0
			c0.2,0.1,0.4,0.1,0.6,0.2c0.2,0.1,0.4,0.2,0.6,0.3c0,0,0,0,0.3,0c-0.4-0.3-0.4-0.3-0.5-0.4c0.4,0.1,0.4,0.1,0.6,0.1l0,0h0l0,0h0
			l0,0h0h0h0l0.1,0c0-0.1-0.1-0.1-0.2-0.1c0.2,0,0.3,0.2,0.5,0.1c0-0.1-0.2-0.2-0.2-0.3l0.1,0h0c0.2,0,0.3,0.1,0.5,0.1
			c0.1,0,0.2,0,0.3,0c-0.6-0.3-0.6-0.3-0.6-0.4C123.9,38.4,123.8,38.3,123.7,38.2 M120.3,38.2L120.3,38.2l-0.1,0l-0.2,0l0,0l0,0
			c0,0.1,0.4,0.3,0.5,0.3l0.3,0.1l0.1,0l-0.1-0.1l-0.1,0C120.6,38.4,120.5,38.4,120.3,38.2 M123.3,40.4c0.1,0,0.3,0,0.4,0
			c-0.1,0-0.1-0.1-0.2-0.1l-0.1,0c-0.2,0-0.3-0.1-0.5-0.2l-0.1-0.1c-0.1-0.1-0.3-0.2-0.4-0.2l-0.1,0c0.3,0.2,0.5,0.3,0.8,0.5
			C123.1,40.3,123.2,40.4,123.3,40.4 M107.3,36.2L107.3,36.2l-0.1-0.1l-0.1-0.1l-0.2,0h-0.1l-0.1,0l-0.1,0h-0.1l0,0.1l0.1,0.1l0.2,0
			l0.2,0.1l0.1,0c0,0,0.1,0,0.2,0L107.3,36.2L107.3,36.2L107.3,36.2 M103.6,37.3L103.6,37.3l0-0.2l0-0.1l0,0l-0.1-0.1h0l0,0.1
			c0,0,0,0.1-0.2,0.1l0,0.1l0.1,0l0.2,0L103.6,37.3L103.6,37.3 M106.3,35.8l-0.1-0.1l-0.1-0.1c-0.1,0-0.2,0-0.3,0
			c-0.1-0.3-0.1-0.3-0.2-0.3c-0.1,0-0.3-0.1-0.4-0.1v0.2l0,0h0l-0.1-0.1l0.1-0.1l0-0.1c-0.1,0-0.2,0-0.2-0.1l0,0h0l0,0.1l-0.1,0l0,0
			c0,0.1,0,0.1,0,0.2l0,0.2h-0.1l0,0.1c0,0.1,0.1,0.1,0.1,0.2c0,0.1,0,0.2-0.1,0.2l-0.1,0c-0.1,0.1,0,0.3,0,0.3
			c0.1,0.1,0.2,0.2,0.3,0.1l0.1-0.1l0.1-0.1l0.1,0l0.1,0c0.1,0,0.3,0,0.4,0l0.1-0.1c0,0,0,0,0.1,0c0.1,0,0.1,0,0.2,0l0,0l0.1-0.1
			c0.1,0,0.1,0,0.2,0C106.3,36,106.4,36,106.3,35.8 M104.2,34.8c0,0-0.2-0.3-0.3-0.3c0,0-0.2,0-0.2,0.1l0,0.1l-0.2,0l0-0.1l0-0.1
			c-0.1,0-0.2,0-0.3,0c-0.1,0-0.1,0.1-0.2,0.2c-0.1,0-0.2,0-0.3,0l-0.1,0.1l-0.1,0l-0.1,0.1V35l0.2,0.1l0,0.1l0,0.2
			c0.2,0,0.4,0,0.6,0c0.1,0,0.1,0,0.3,0.2c0.4,0,0.4,0,0.5,0h0.1c0.3,0,0.3-0.1,0.3-0.2l-0.1-0.2c-0.1,0-0.1,0-0.2,0
			c0-0.1,0-0.1,0-0.2L104.2,34.8 M103.3,34L103.3,34L103.3,34L103.3,34l-0.4-0.1c0-0.2-0.1-0.2-0.2-0.2l-0.1,0.1l-0.1,0.1
			c-0.1,0-0.1,0-0.1,0.1l-0.2,0c0,0.2,0,0.2-0.1,0.2l-0.1,0h-0.1l-0.1,0.1l0,0.1l0.2,0h0l0.1,0.1c0,0,0,0,0.2,0.1l0.1,0
			c0.1,0,0.1,0,0.1,0l0.1-0.1c0,0,0,0,0.1,0c0.1,0,0.2,0,0.2-0.1l0,0c0.1,0,0.2,0,0.3,0c0-0.1,0-0.2,0-0.2L103.3,34L103.3,34
			L103.3,34L103.3,34 M102.4,34.9L102.4,34.9l0-0.1l0-0.1l-0.1,0l-0.1,0l0,0l-0.1,0l-0.1,0H102l-0.1,0l0,0h-0.1h-0.1
			c0,0.1,0,0.1,0,0.2c0.1,0,0.2,0,0.2,0h0.1c0,0,0.1,0,0.1,0.1l0,0l0.1,0L102.4,34.9L102.4,34.9L102.4,34.9 M101.9,33.8L101.9,33.8
			L101.9,33.8l0-0.1l-0.1,0l-0.1,0l0,0l-0.1,0l0,0.1l0,0.1l0.1,0l0.1,0.1h0L101.9,33.8L101.9,33.8 M74.5,45.8l0.1-0.1
			c-0.2-0.1-0.2-0.1,0.1-0.4c-0.2,0-0.5,0-0.7,0c-0.1,0.1-0.2,0.1-0.2,0.2l-0.1,0.1c-0.2,0.2-0.5,0.5-0.7,0.7c0.1,0,0.2,0,0.4,0
			c0.2,0,0.3-0.2,0.5-0.3l0.1,0c0.1,0,0.3,0,0.4-0.1L74.5,45.8 M92.5,37.5c0,0,0.1-0.2,0.2-0.3l-0.1,0l-0.1-0.1l-0.1,0l-0.1,0
			c-2.8,0.7-2.8,0.7-3,0.7c0,0-0.1,0-0.1,0c-0.7,0.1-0.7,0.1-1.2,0.4c-0.2,0-0.4,0-0.6,0c-1.7,0.7-2.6,1-3,1.3l-0.1,0.1
			c-0.1,0.1-0.2,0.2-0.3,0.2c-1.2,0.2-1.2,0.2-1.6,0.6c0.5-0.1,0.5-0.1,0.5-0.1c-0.1,0.1-0.2,0.1-0.3,0.2l-0.1,0.1l0,0.1
			c-0.1,0-0.2,0.1-0.3,0.1h0c-0.2,0-0.2,0-0.3,0c-0.2,0.1-0.3,0.3-0.5,0.4L79.4,42c-0.3,0.2-0.3,0.2-1.2,0.9c0.1,0,0.2,0,0.2,0
			c0.2-0.1,0.2-0.1,0.4-0.2l0.1,0c-0.1,0.1-0.1,0.1-0.2,0.3c0.1-0.1,0.3-0.2,0.4-0.3c0.1,0.3,0,0.4,0,0.5l-0.5,0.3l-0.1,0.1
			l-0.1,0.1c0.2,0,0.4,0,0.6,0c0.3,0.1,0.5,0.2,0.8,0.2l0.2,0c0.2,0,0.2,0,0.2,0c0.1-0.1,0.2-0.2,0.3-0.3l0.1-0.1l0-0.1
			c0.1-0.1,0.2-0.2,0.2-0.3l-0.1,0l0-0.1c0,0,0,0,0.2-0.6l0.1-0.1l0-0.1c0.2-0.1,0.3-0.3,0.4-0.4l0.1-0.1c0.5-0.2,0.9-0.6,1.4-0.9
			l0.2-0.1l0.1,0l0.1,0l0.1-0.1c0,0,1.9-0.8,2.4-1.3c0,0,0.6,0,0.9-0.2c0,0,0.1-0.1,0.2-0.1c0.3,0,0.8-0.2,1.2-0.5l1.4-0.3
			c0.2,0,0.3,0,0.6,0c0,0,0.8-0.3,1-0.3c0.1,0,0.3,0,0.4,0C92.3,37.6,92.4,37.5,92.5,37.5 M90.7,41l0-0.2c0-0.1-0.2-0.1-0.2-0.1
			c-0.1,0-0.2,0-0.9,0.5l0,0.1c0.1,0,0.2,0,0.3,0l0.1,0c0.1,0,0.1,0,0.1,0l0.1,0l0.1,0C90.6,41.2,90.6,41.1,90.7,41 M96.6,33.7
			L96.6,33.7c0.1-0.1,0.1-0.1,0.1-0.1l0,0v0l-0.1,0l-0.2,0l-0.1,0c-0.1,0-0.2,0-0.2,0l-0.2,0.1l-0.1,0l0,0c-0.2,0.1-0.3,0.2-0.3,0.2
			c-0.1,0.1,0.3,0,0.4-0.1C96.2,33.8,96.5,33.7,96.6,33.7 M95.1,34.1l0.1-0.1c0.4-0.2,0.4-0.2,0.7-0.4l0,0c-0.2,0-0.4,0.1-0.6,0.2
			l0.1,0c-0.1,0-0.2,0.1-0.3,0.1c-0.2,0-0.4,0.1-0.4,0.1l-0.1,0l-0.1,0.1l0,0l0,0c0.1,0,0.1-0.1,0.2,0l0.1,0l0,0l0,0
			C94.9,34.1,95,34.1,95.1,34.1 M93.9,34.4l0.2-0.1C94,34.3,93.9,34.3,93.9,34.4l-0.1,0l-0.1,0h-0.1l0,0l0,0
			c-0.2,0.1-0.2,0.1-0.2,0.1v0h0.1l0.1,0L93.9,34.4L93.9,34.4 M94.1,34.2l0.1-0.1l0.1-0.1c-0.1,0-0.2,0-0.3,0
			c-0.3,0-0.5,0.1-0.7,0.2c-0.1,0.1-0.2,0.1-0.4,0.2c0.1,0,0.1,0,0.2,0c0.2-0.1,0.3-0.1,0.5-0.2c-0.3,0.1-0.4,0.2-0.4,0.2l0.2,0
			c0.2-0.1,0.3-0.1,0.5-0.2L94.1,34.2 M95.1,33.8l0.2-0.1l0.2-0.1c-0.1,0-0.1,0-0.2,0l0,0c0.2-0.1,0.5-0.1,0.7-0.2l0.1-0.1h0l-0.2,0
			l0,0c-0.3,0.1-0.3,0.1-0.4,0.1c-0.4,0.1-0.4,0.1-0.5,0.1l0,0l0,0h-0.1l-0.6,0.2c-0.1,0-0.2,0.1-0.3,0.1c-0.2,0-0.3,0.1-0.5,0.1
			l0,0h0h0l0,0h0l0,0h0h0c-0.1,0-0.1,0-0.3,0.1l-0.2,0.1l-0.1,0l0.1,0c0.1,0,0.2-0.1,0.3-0.1c0.1,0,0.2,0,0.3-0.1
			c0.2-0.1,0.5-0.1,0.8-0.1l0,0l0,0.1l0,0l0.1,0c0.6-0.3,0.7-0.3,0.7-0.2l0,0c-0.2,0.1-0.2,0.1-0.2,0.1
			C94.8,33.9,94.9,33.8,95.1,33.8 M93,33.9c0.1,0,0.2-0.1,0.3-0.1l0,0l-0.1,0c0.2-0.1,0.4-0.1,0.5-0.2l0.1,0c-0.1,0-0.2,0-0.3,0.1
			L93,33.7c0,0,0,0-0.4,0l0,0l0,0l0.1-0.1c-0.6,0.2-0.6,0.2-0.6,0.2c0.1,0,0.1,0,0.1-0.1v0l-0.1,0c-0.4,0.1-0.5,0.2-0.6,0.2l0,0
			c0.1,0,0.3,0,0.4-0.1c0.3-0.1,0.3-0.1,0.3,0l0,0l0.1,0C91.9,34,91.9,34,91.8,34c-0.1,0-0.3,0.1-0.4,0.1c-0.1,0-0.2,0.1-0.3,0.1
			C91,34.4,91,34.4,91,34.4c0.2,0,0.6-0.2,1-0.3l0.2-0.1l0.2,0l0,0l0,0C92.5,34.1,92.9,34,93,33.9 M87.3,34.1
			c0.4-0.1,0.6-0.2,0.6-0.2c-0.1,0-0.2,0-0.3,0l0,0c0.3-0.1,0.7-0.2,1-0.3c-0.4,0-0.7,0.2-1.1,0.2l0.2,0l0.6-0.1l0.1,0
			c0.1,0,0.2,0,0.2-0.1c-0.1,0-0.2,0-0.4,0.1l0,0l0,0l0.1,0l-0.1,0c-0.5,0.1-1,0.2-1.4,0.3c0.4-0.2,0.8-0.1,1.1-0.3
			c-0.4-0.1-1.3,0.2-1.4,0.2l0,0L86.5,34c0.1,0,0.2,0,0.2,0c-0.1,0-0.1,0-0.5,0.1l-0.2,0c-0.2,0-0.4,0.1-0.6,0.1
			c-0.1,0-0.2,0.1-0.4,0.1l0.1,0c0.1,0,0.1,0,0.1,0c-0.1,0.1-0.3,0-0.4,0.2c0.3,0,0.5-0.1,0.8-0.1l-0.2,0.1c0,0,0.2,0,0.6-0.1
			C86.4,34.3,86.4,34.3,87.3,34.1 M84.8,34.3l0.1,0L84.8,34.3L84.8,34.3 M80.9,35.9l0.3-0.1c0.3-0.1,0.3-0.1,0.4-0.2l-0.1,0
			c0.1-0.1,0.1-0.1,0.8-0.3c-0.1,0-0.1,0-0.2,0c0.5-0.2,1-0.3,1.5-0.5c0.2-0.1,0.5-0.1,0.7-0.3c0,0,0,0-0.3,0.1
			c0.1-0.1,0.1-0.1,0.2-0.1c0.2-0.1,0.4-0.1,0.7-0.2l0,0c0.4-0.2,1-0.2,1.4-0.4l0,0c-0.2,0-0.6,0.1-0.8,0.2c-0.1,0-0.2,0-0.3,0.1
			c-0.4,0.1-0.9,0.2-1.3,0.3c0,0,0.1,0,0.7-0.2c0.1,0,0.2,0,0.3-0.1c0.1,0,0.2,0,0.3-0.1c0.1,0,0.2,0,0.3-0.1
			c0.5-0.1,0.5-0.1,0.5-0.1c-0.3,0.1-0.7,0.1-1,0.2l-0.1,0c0.2,0,0.3-0.1,0.5-0.1c0.3-0.1,0.5-0.1,0.8-0.2c-0.1,0-0.5,0.1-0.6,0.1
			c-0.1,0-0.1,0-0.1,0c-0.2,0-0.2,0-3.6,0.9c0.4-0.1,0.7-0.2,1.1-0.3c-0.2,0-1.4,0.4-1.7,0.5c0,0,0,0,0.9-0.2
			C81.5,35,81.2,35,81,35.1l0,0c0.1,0,1-0.2,1.2-0.3c0.2,0,0.3-0.1,0.4-0.1l0.1,0c-0.3,0.1-0.6,0.2-1,0.3l0.1,0l0.4-0.1L82.2,35
			c-0.6,0.2-0.6,0.2-0.6,0.2c-0.1,0-0.2,0.1-0.3,0.1l0,0l0,0c0,0-0.3,0-1.1,0.2c-0.2,0.1-0.4,0.1-0.6,0.2l0.2,0l0.1,0l0,0
			c0,0,0,0,0.8-0.1l0,0c-0.2,0.1-1.2,0.3-1.2,0.3h0l0,0c-0.2,0-1,0.3-1.2,0.4l0,0c0,0,0,0-1.3,0.6l0.1,0c0,0,2.4-0.8,2.6-0.8
			c0.5-0.1,0.9-0.3,1.3-0.4c0.1,0,0.1,0,1.7-0.5l0.2,0c-0.4,0.1-0.8,0.2-1.1,0.3l0,0c-0.1,0.1-0.1,0.1-0.9,0.3
			c-0.4,0.1-0.8,0.2-1.1,0.3l0.1,0c0.3,0,0.6-0.2,0.9-0.2c-0.3,0.1-0.6,0.2-0.9,0.3l0.1,0c0.1,0,0.1,0,0.7-0.2c0.1,0,0.1,0,0.2,0
			L80.9,35.9 M56.3,106.8c0.3-2.9,0.6-5.7,1-8.5c-3.6-0.1-7.1-0.3-10.5-0.5c-4.3-0.2-8.1-0.5-11.4-0.7c0,0-0.5,1.3-0.8,1.6l-0.1,0.1
			l-0.1,0.1l-0.1,0c-0.1,0-0.1,0-0.5,0.1l-0.1,0l-0.1,0l-0.1,0.1l-0.1,0.1l-0.2,0l-0.1-0.1l-0.1-0.2c-0.1-0.1-0.1-0.1-0.2-0.1
			c-0.1,0-0.4-0.1-0.6-0.2l-0.1,0l-0.1,0l-0.1,0.1c0.3,0.4,0.3,0.4,0.7,0.5c0.1,0.1,0.1,0.2,0,0.3l0,0.2c0,0.1,0.1,0.3,0.1,0.4
			c0,0.1,0,0.3-0.1,0.4l0,0.1l0,0.2c-0.1,0.7,0.1,1.3,0.2,1.9c0.2,0.7,0.2,0.8,0.3,0.9c0.1,0.1,0.2,0.1,0.3,0.1
			c0.4,0.1,0.4-0.5,0.6-0.7l0.1,0.2c0.3,1.5,1.2,2.8,1.1,4.4c0,0.2,0,0.2,0,0.3c-0.2,0.7-0.1,1.1-0.1,1.3c0.1,0.4,0.6,0.3,0.7,0.6
			l0.7,2.4c0.1,0.3,0.2,1,0,1.4c-0.3,0.6-0.2,0.7,0.6,1.9c0.5,0.7,0.7,0.9,0.9,1.8c0.1,0.4,0.1,0.4,1.3,2.5c0.4,0.7,0.2,1.4,0.5,2.1
			c0.1,0.3,0.1,0.3,0.2,0.5c0.1,0.1,0.1,0.2,0.1,0.3c0,0.8,0,1.7,0.1,2.5c0.3,1.3,1.7,1.7,2.2,1.1c0.8-1.1,0.8-1.1,1-1.1
			c0.4,0,0.8,0,1.3,0.1l0.1,0c0.1,0.1,0.2,0.2,0.3,0.2l0.2,0c0.1-0.2,0.2-0.4,0.3-0.6c0.7-1.4,2.5-0.8,3.4-1.9
			c0.2-0.3,0.2-0.3,1.2-0.2c0-0.7,0-1.1,0.4-1.1c0.5-0.5,0.6-0.5,2.9-0.3c0,0,0-1,0.3-1.5c0.4-0.1,0.8,0,1.2,0c0,0,0.4-1.2,0.6-1.4
			c0-2.6,0.2-5.2,0.3-7.7c-0.1,0.1-0.2,0.2-0.2,0.2c0-0.3,0-0.7-0.1-1c-0.2-0.1-0.2-0.1-0.3-0.4c0-0.5,0-1,0.1-1.5
			c-0.2-0.3-0.2-0.3-0.4-0.5c-0.1,0.3-0.1,0.3-0.5,0.4c-0.4,0.2-0.4,0.2-0.7,2.1c-0.4-0.1-0.4-0.1-0.9-0.1c-0.2,0-0.3,0-0.4,0
			c-0.2-0.1-0.4-0.2-0.6-0.3c-0.2,0-0.2,0-0.3,0c-0.6,0.5-0.6,0.5-1,0.9c0,0-0.9-0.1-0.9-1.3c0.1,0,0.2-0.1,0.3-0.2
			c0.3-0.2,0.3-0.2,0.6-0.3l0.1,0c0.3,0.2,0.8,0.5,1.3,0.1c0-0.3,0-0.3-0.1-0.5c-0.2,0-0.3-0.1-0.3-0.1c-0.1,0-0.2,0-0.3,0
			c-0.2,0-0.3,0-0.4,0c-0.6-0.2-1.3-0.3-1.9-0.5c-0.2,0-0.3,0-0.4,0c0-0.5,0.1-0.9,0.1-1.4c0-0.1-0.1-0.2-0.1-0.3l-1.4-0.8
			c0.1-1.2-0.6-2.5-0.1-3.7c0.3-0.8,1.3-0.4,1.5-0.1c0.6,0.8,0.6,1.9,1.3,2.7c1.9,1.9,1.9,1.9,3.5,2.2c0.2,0,0.2,0,0.3,0
			c0.1,0,0.2,0,0.2,0c0.3-0.2,0.6,0,0.9-0.2c0.1,0,0.2,0,0.3,0C55.8,106.3,55.8,106.3,56.3,106.8L56.3,106.8 M138.1,88.1
			c-1.9-10.3-4.7-19.7-8.1-27.7C111,60.9,87.7,60.7,69.2,60c-5.5,10.7-9.7,23.8-11.9,38.3c24.1,0.9,54,1.1,79.3,0.6
			c0-0.7,0-0.7-2.2-2.8c0-0.3,0-0.4,0-0.5c0.1-0.2,0.3-0.5,0.5-0.7c0-0.1,0-0.3,0-0.4c-0.1-0.4-0.1-0.6-0.1-0.8c0.2,0,0.5,0,0.7,0
			c0.2-0.2,0.3-0.5,0.4-0.7c0.1,0,0.3,0,0.4-0.1c0.4-0.1,0.5-0.1,0.6-0.1c0.1,0,0.3,0,0.4,0c0.1-0.1,0.2-0.2,0.3-0.3
			c0-0.1,0-0.3-0.1-0.4c-0.5-0.1-0.9-0.1-1.3-0.1c-0.2-0.2-0.4-0.5-0.5-0.7c-0.4-0.1-0.7-0.1-1-0.1c0,0.3,0,0.6,0,0.9
			c-0.2,0.1-0.5,0.2-0.8,0.2c-0.1-0.5-0.2-1-0.3-1.5c-0.5,0-1,0-1.5,0c-1.1-0.7-0.2-1.5,0.1-1.6c0.3,0,0.6,0,0.9,0
			c0.7-1,1.9-1.5,2.6-2.4c0.1,0,0.1,0,0.2,0l0.4,0.4c-0.5,0.8-0.9,2.5-0.9,2.5c0.1-0.1,0.2-0.2,0.3-0.3c0.4-0.1,0.8-0.1,1.2-0.1
			C137.4,89,137.6,88.4,138.1,88.1L138.1,88.1L138.1,88.1L138.1,88.1L138.1,88.1L138.1,88.1L138.1,88.1L138.1,88.1L138.1,88.1
			 M46.8,58.5c0.2,0,0.3,0,0.5,0.1l0,0l0,0l-0.1,0l0,0c0,0,0-0.1,0-0.2l0.2-0.2l0,0h-0.1l0,0c0,0,0,0-0.1,0.1L47,58.2l-0.2,0.2
			C46.8,58.4,46.8,58.4,46.8,58.5 M65.6,43.6c0.3-0.2,0.6-0.4,1-0.6v0l-0.1,0l-0.1,0L66.2,43c-0.3,0.2-0.6,0.4-0.9,0.5
			C65.4,43.6,65.5,43.6,65.6,43.6 M69.2,60c2.6-5.1,5.6-9.6,8.8-13.5c-0.2,0-0.2,0-0.5,0.3c-0.2,0-0.3,0-0.3,0c-0.1,0-0.2,0-0.2,0
			c-0.1,0-0.2,0-0.3,0c-0.3,0.2-0.4,0.3-0.5,0.4c-0.1,0-0.3,0-0.4,0c0-0.1,0-0.3,0-0.4c0.3-0.3,0.8-0.7,0.8-0.7
			c-0.1,0-0.1,0-1.5,0.5c-0.2,0-0.3,0-0.3,0c-0.5,0-0.6,0.1-0.8,0.3l-0.2,0.1c-0.2,0-0.2,0-0.3,0c-1.5,0.3-2.7,1.2-4,1.7
			c-0.2,0-0.2,0-0.2,0c0-0.1,0-0.2,0-0.3c0.2-0.5,0.2-0.5,0.6-0.8c0.3-0.1,0.6-0.1,0.8-0.1c0.2-0.2,0.3-0.3,0.5-0.5l0-0.2
			c0.1-0.1,0.1-0.2,0.2-0.3l-0.2-0.1c-0.1,0-0.1,0-0.2,0l0-0.2l-0.2,0c-0.2,0-0.2,0-0.3,0l-0.2,0c-0.1,0.1-0.3,0.2-0.4,0.3l0.2,0.1
			c-0.3,0.4-0.6,0.7-1,1c-0.6,0.4-0.6,0.4-0.8,0.6l0.1,0.1c0,0.1,0,0.3-0.1,0.4c-0.1,0.1-0.1,0.1-0.1,0.2c-0.4,0.2-0.6,0.6-0.9,0.8
			c-0.1,0-0.3-0.1-0.4-0.1c0.1-0.1,0.1-0.2,0.2-0.2l0.1-0.2c-1.2-0.1-2,1-3.2,1.1l0,0c-0.4,0.4-0.4,0.4-0.5,0.6
			c0.1,0.3,0,0.4-0.3,0.6c-0.1,0.1-0.1,0,0,0c-0.4,0-0.4,0-0.6-0.1c-0.1-0.1-0.1-0.1-0.2-0.1l-0.2-0.1c0-0.1-0.1-0.2-0.2-0.2
			c0-0.2,0-0.2,0.3-0.5c-0.9,0.4-0.9,0.4-1.1,0.7l0.1,0.2c-0.1,0.1-0.2,0.2-0.3,0.3l0.1,0.1l0.2,0l0.1,0.1c0,0.2-0.1,0.3-0.3,0.4
			c-0.3,0.1-0.5,0-0.7,0c-0.1,0.1-0.2,0.2-0.3,0.2c0-0.2,0-0.4,0-0.6l-0.2-0.1c0-0.3,0-0.3,0.9-1.2c-0.1,0-0.2,0-0.3,0l0.6-0.6
			c1-0.8,1-0.8,1.1-1L62,48.9c0.2-0.3,0.2-0.3,0.5-0.6l-0.1-0.1c0.1-0.1,0.2-0.3,0.3-0.5c0,0.4,0,0.4-0.1,0.6l0.1,0.1h0.2
			c0,0.1,0,0.3,0,0.4c0.2,0,0.5,0,0.7,0.1c0,0.1,0.1,0.2,0.2,0.3l0.2,0.1c0.1,0,0.2,0,0.2,0l0.1,0c3.3-1.3,3.4-1.4,3.5-2.4
			c-0.2-0.1-0.4-0.1-0.5-0.1c0-0.2,0.2-0.5,0.2-0.7l0.1-0.2l-0.1-0.1l0-0.2c-0.2,0-0.2,0-0.6,0l0,0c0-0.1,0.1-0.3,0.1-0.4
			c0-0.1-0.1-0.1-0.2-0.1c-0.2,0.2-0.2,0.2-0.5,0.3c-0.2,0-0.2,0-0.2,0c0.1-0.1,0.1-0.1,0.6-0.5l0.1-0.1c0-0.2,0-0.2,0.4-0.4
			c0-0.1-0.1-0.1-0.1-0.1c-0.1,0-0.2,0.1-0.4,0.1l0-0.2l-0.2-0.1c0-0.2,0.1-0.2,0.2-0.3c0.2,0,0.5-0.2,0.7-0.3
			c0.1-0.1,0.2-0.2,0.3-0.3l-0.2,0c0-0.1,0.1-0.2,0.2-0.3l-0.1,0c-0.2,0.1-0.4,0.3-0.6,0.4l-0.2,0c0.1-0.1,0.2-0.2,0.4-0.3
			c0.2-0.1,0.2-0.1,0.5-0.3l0.2-0.1c-0.2,0-0.3,0-0.5,0c-0.6,0.4-0.6,0.4-0.8,0.5c-0.1,0.1-0.2,0.1-0.3,0.2L66,43.6l-0.1,0
			c0.6-0.4,0.6-0.4,0.8-0.6c0-0.1,0-0.1-0.1-0.1l0.5-0.3l0,0l-0.1,0c-0.5,0.2-1,0.4-1.5,0.6c-0.1,0-0.2,0-0.2,0
			c0.1-0.2,0.1-0.2,0.5-0.3c0.1-0.1,0-0.1,0-0.1c-0.7,0.1-0.9,0.3-1.3,0.6v0.2c-0.2,0.1-0.3,0.2-0.5,0.3l-0.1,0l-0.1-0.2l-0.1-0.1
			c-0.9,0.5-0.9,0.5-1.1,0.7c0.3-0.3,0.6-0.6,1-0.9c-0.3,0.1-0.4,0.2-0.6,0.3c0,0-1.2,0.8-1.7,0.9c0.2-0.2,0.2-0.2,0.6-0.5
			c-0.2,0.1-0.2,0.1-1,0.5c-0.2,0.1-0.3,0.3-0.4,0.4c-0.1,0-0.1,0.1-0.2,0.1l-0.2,0.1l0-0.2c0.1,0,0.1,0,0.8-0.5
			c-0.3,0.1-0.5,0.2-0.7,0.4c-0.5,0-1.6,0.7-1.7,0.7l-0.1,0c-0.2,0.1-0.4,0.2-0.5,0.3l0,0L57.7,46c-0.1,0.1-0.1,0.1,0,0.1
			c0.4-0.2,0.8-0.3,1.1-0.5c0.1,0,0.1,0,0.1,0c0.4-0.1,0.4-0.1,0.5-0.1c-0.1,0.1-0.3,0.2-0.4,0.3c-0.6,0-4.7,2.5-5.7,3.3l0.1-0.1
			c-0.5,0.3-1.1,0.5-1.6,0.9c0.1,0,0.1,0,0.2,0c-0.8,0.6-1.7,1-2.5,1.6c0-0.2,0-0.2-0.1-0.2l-0.4,0.3c-0.4,0.3-0.4,0.4-0.6,0.5
			l-0.1,0h0l0,0h0l0,0l0,0v0h0c-0.5,0.3-1.8,1.1-3.7,2.8C44.5,55,44.5,55,44.5,55l-0.2,0.1c-0.2,0.2-0.3,0.3-0.4,0.4l0.1,0
			c-0.2,0.4-1.9,2-1.9,2c0.1,0.1,0.4,0.2,0.6,0.3c0.6-0.5,0.6-0.5,0.8-0.5c0.2-0.2,0.3-0.3,0.5-0.4c0,0.2-0.1,0.3-0.7,1
			c0.4,0.2,1.1,0.3,1.8,0.4c1.4-1,1.4-1,1.6-1.1c0.1-0.1,0.2-0.2,0.3-0.3l0.1-0.1l-0.1-0.2c0.2-0.5,0.7-1.1,0.8-1.2
			c0.5-0.5,1-1,1.6-1.5c0.3-0.1,0.9-0.6,1.1-0.8c0.9-0.7,2-1.1,2.9-1.7c0.7-0.4,1.3-0.9,1.9-1.4l1.9-1l0.1,0h0l0,0h0h0h0l0,0h0
			c-0.1,0.2-0.3,0.3-0.4,0.5c0.1,0,0.2-0.1,0.3-0.1l0,0.2c-0.1,0.1-0.2,0.2-0.3,0.3c-0.3,0.3-0.5,0.5-0.7,0.6c-0.1,0-0.2,0-0.2,0
			c-1.9,1.7-4.4,2.6-6.2,4.5l-0.2,0.2c-0.1,0.2-0.1,0.2-0.6,0.6l0.2,0.1c0,0.4-0.2,0.7-0.3,1.1l0.1,0.1c0.3-0.1,0.5-0.3,0.7-0.4
			l0.1,0.2c0.4,0,0.4,0,0.7-0.3l0.2-0.1c0.2,0,0.5,0.1,0.8,0.1c0.1-0.1,0.2-0.1,0.4-0.2c0.1,0,0.1,0,0.1,0c-0.1,0.2-0.2,0.3-0.2,0.5
			c0.2,0,0.3,0,0.5,0L52,57c0,0-2,1.2-2.5,1.1c0-0.1,0-0.3,0-0.4c-0.2-0.1-0.4,0-0.6,0c-0.1-0.1-0.1-0.1-0.1-0.1
			c-0.2,0.1-0.3,0.1-0.5,0.2l-0.1-0.2c-0.5,0.3-0.5,0.3-0.9,0.7c3.3,0.4,8.1,0.8,14.1,1.1C63.9,59.8,66.5,59.9,69.2,60 M152,47.9
			c-0.3-0.2-0.5-0.3-0.8-0.5c-0.3-0.2-0.3-0.2-0.5-0.3l0,0l-0.1,0l0,0c-0.1-0.1-0.3-0.2-0.4-0.2c0.2,0.2,0.5,0.3,0.7,0.5
			c0.1,0.1,0.2,0.1,0.2,0.1c0.1,0.1,0.3,0.2,0.4,0.3c-0.2-0.1-0.2-0.1-0.6-0.3c-0.5-0.3-1-0.7-1.4-1c-0.1-0.1-0.3-0.2-0.4-0.2
			c-0.1-0.1-0.1-0.1-0.1,0c-0.5-0.1-1.6-0.8-1.6-0.8c-0.7-0.2-1-0.3-2.8-1.2c-0.2-0.1-0.2,0-0.2,0l0,0c-0.3-0.1-0.5-0.2-0.8-0.3
			c-0.2,0-0.2,0-0.2,0l0.2,0.2c-0.1,0.1-0.2,0.1-0.2,0.1c-1.2-0.4-1.2-0.4-1.3-0.4c0.6,0.9,1.7,1.1,2.6,1.7c0,0.1-0.1,0.1-0.2,0.1
			c-0.3-0.2-0.5-0.4-0.8-0.5c-0.1,0-0.2,0-0.3,0c-0.2-0.2-0.5-0.3-0.7-0.5l0,0c0-0.1-0.2-0.3-0.3-0.4L142,44c-0.2,0-0.3,0-0.4,0
			c0.8,0.5,0.8,0.5,0.9,0.7l0,0.1c-0.5-0.2-0.6-0.2-0.8-0.2c-0.1,0-0.2,0-0.3,0l0,0.2c-0.1,0-0.1,0-0.8-0.3l-0.1,0
			c0.1,0.1,0.3,0.2,0.4,0.3c0.4,0.3,0.6,0.4,0.9,0.6l0,0l-0.2-0.1c-0.1-0.1-0.3-0.2-0.4-0.3c0,0-2.6-1.6-3.4-1.9
			c-0.1-0.1-0.3-0.2-0.5-0.2c-0.3,0-0.6-0.1-0.9-0.1l-0.1,0.2c0,0.2-0.1,0.2-0.1,0.2c-0.1,0-0.3,0.1-0.4,0.1c0,0.1,0,0.1,0,0.1
			c-0.4-0.1-0.7-0.2-1-0.3c-0.1,0-0.1,0-0.2,0c-0.6-0.1-0.6-0.1-0.9-0.3c-0.3-0.1-0.6-0.3-1-0.4c-0.1,0-0.2,0-0.2,0l-0.2-0.1
			c-0.1-0.1-0.3-0.3-0.4-0.4l-0.2,0c-0.4,0-0.8,0-1.1,0h0c0.3,0.2,0.3,0.2,0.5,0.5c0,0.2-0.1,0.2-0.1,0.2c-0.2-0.1-0.4-0.2-0.8-0.7
			l0-0.1c-1-0.7-2.1-0.4-3.2-0.6c0.1,0.2,0.1,0.2,0.5,0.5c-0.1,0.1-0.3,0.1-0.5,0.1l0,0.2c0.5,0.4,1.2,0.5,1.7,0.9
			c0.1,0.1,0,0.1,0,0.1c-0.9-0.2-1.3-0.2-1.3-0.2c-0.1,0.1,0,0.1,0.1,0.2l0.2,0.1c0.4,0.1,0.4,0.1,0.6,0.3c-0.1,0-0.1,0-1-0.3
			c-0.2-0.1-0.3-0.2-0.3-0.2c-0.1,0-0.3,0-0.4,0c0,0.1-0.1,0.3-0.1,0.4c-0.6-0.1-1.2-0.3-1.3-0.3l-0.1,0.2c-0.1,0-0.2-0.1-0.2-0.1
			l0,0.2c0.3,0.2,0.5,0.4,0.8,0.8c-0.1,0.1-0.3,0.1-0.5,0.1c-0.6-0.7-1.6-0.8-2.3-1.3l-0.1-0.1c-0.1-0.3-1.3-1.6-2.4-1.9
			c-0.1,0-0.1,0-0.1,0l0,0h0h0h0h0l0,0h0l0.1,0.3c-0.8,0.1-1.4-0.6-2.1-0.7l-0.2,0.1c0.1,0.3,0.3,0.5,0.4,0.7
			c0.3,0.2,0.3,0.2,0.5,0.4l-0.1,0c4.3,4.8,8.1,11.2,11.3,18.8c5.3-0.1,10.2-0.3,14.7-0.5c0-0.3,0-0.6,0.1-0.8c0.3,0,0.3,0,0.6,0.1
			l0.2-0.1c0.1,0,0.1,0,0.2,0l0.2,0.1c0.1,0,0.1,0,0.2,0l0.2-0.1c0.1-0.1,0.1-0.1,0.1-0.1c0.7,0.3,0.7,0.3,1,0.1l0.2,0
			c0.5,0,1-0.1,1.6-0.1c-0.1-0.1-0.2-0.3-0.3-0.4c-0.3-0.4-0.3-0.4-0.3-0.6c0.3,0.2,0.3,0.2,0.6,0.3c0.9-0.5,1.1,0.9,1.8,1.1
			c0.2,0,0.4,0,0.6,0c0.1-0.2,0.1-0.2-0.1-0.6c0.2,0,0.2,0,0.8,0.4l-0.1-0.2c0.1,0,0.2,0,0.2,0c0.2,0.1,0.3,0,0.5,0
			c-0.1-0.1-0.1-0.1-0.6-0.6l-0.2,0c-0.3-0.2-0.4-0.4-0.6-0.5l-0.1-0.2l0.1-0.2c-0.4-0.8-0.4-0.8-0.3-1.1c-0.1-0.2-0.4-0.7-0.5-1.3
			l0.1-0.2L151,55c0.2,0.1,0.2,0.1,0.2,0.1l-0.1-0.2c0-0.1,0-0.1,0-0.1c0.3,0.2,0.9,0.3,1.1,0.7c0.1,0.1,0.1,0.1,0.2,0.2
			c0.4,0.3,1.1,0.9,1.1,0.9c-0.1-0.5-0.5-1.4-0.5-1.4l0.2-0.1c-0.1-0.2-0.1-0.2-1-1.2l0.1-0.2c0.2-0.1,0.3-0.1,0.4-0.1
			c0.1,0.1,0.2,0.2,0.3,0.3l0.1,0.3c0.1,0.5,1.7,2.5,1.7,2.6c0.6,0.7,0.4,1.7,0.7,2.4c0.6,0,1.1-0.1,1.6-0.1
			c-0.1-0.3-0.5-0.8-0.8-1.1c-0.1-0.1-0.1-0.1-0.1-0.1c-0.4-0.5-0.4-0.5-0.4-0.7c0.2,0,0.2,0,0.8,0.4l0.1-0.2
			c-0.1-0.1-0.1-0.3-0.2-0.4c0.1,0.1,0.1,0.1,0.5,0.4c0.2,0.1,0.2,0.1,0.2,0.1c0-0.3,0-0.3-0.4-0.8l0.2-0.1l0.2,0.1
			c0.2,0,0.4,0,0.6-0.1c0.7,0.7,0.7,0.7,1,0.9c-0.5-0.8-1.4-1.3-1.5-2.3l0.1-0.1c0.2-0.5-0.6-1.6-1-2c0.2,0,0.2,0,0.8,0.3
			c0.2,0,0.2,0,0.2,0c-0.2-0.2-0.4-0.4-0.6-0.6c-0.3-0.2-0.3-0.2-0.8-0.6c-0.5-0.4-0.5-0.4-1.3-1c-0.2-0.1-0.2-0.1-0.9-0.6
			c-0.2,0-0.2,0-0.3,0l-0.3-0.2c-0.1-0.1-0.2-0.2-0.3-0.3c0-0.1,0-0.1,0-0.1c0.1,0.1,0.3,0.2,0.4,0.2c0.1,0,0.2,0,0.2-0.1
			c-0.1-0.3-0.6-0.7-1.4-1.3c-0.2-0.2-0.4-0.3-0.7-0.5c0.2,0,0.2,0,1.4,0.8c0.1,0,0.2,0,0.3,0c0.3,0.1,0.3,0.1,1,0.6
			c0.1,0.1,0.2,0,0.2,0c0.3,0.2,0.6,0.4,1,0.6c0.2,0.1,0.2,0.1,0.2,0.1c-0.1-0.1-0.1-0.1-0.9-0.7c-0.1-0.1-0.1-0.1-0.1-0.1
			c-0.1-0.1-0.1-0.1-1.4-1.1c0.1,0.1,0.3,0.2,0.4,0.2c0.1,0,0.1,0,0.1,0C152.8,48.5,152,47.9,152,47.9 M42.7,57.9L42.7,57.9
			c-0.3-0.1-0.5-0.1-0.7-0.2l0,0c-0.1,0.1-0.1,0.1-0.5,0.5c0.1,0,0.1,0,0.1,0l0,0l0,0l-0.1,0.1c-0.1,0.1-0.2,0.2-0.2,0.3l0.2-0.1
			l0,0.2l0.1,0c0.1-0.1,0.2-0.1,0.3-0.2l0.1-0.1l0,0l0.1,0l0,0C42.1,58.4,42.1,58.4,42.7,57.9 M45,58.3c-0.7-0.1-1.4-0.2-1.9-0.3
			c-0.2,0.2-0.3,0.5-0.5,0.7l-0.1,0.1c-0.5,0.5-0.5,0.5-0.6,0.6c-0.2,0.2-0.2,0.5-0.4,0.7l-0.2,0.2l-0.2,0.2c-0.2,0.3-0.4,0.7-0.6,1
			c-0.2,0.3-0.4,0.5-0.7,0.7l-0.1,0.1c-0.1,0.1-0.2,0.3-0.3,0.4c0.1,0,0.3,0.1,0.4,0.1c0.4-0.4,0.8-1,1-0.9l0.1,0c0,0.1,0,0.1,0,0.2
			l0,0c0.5-0.3,0.5-0.3,0.5-0.3c0.2-0.2,0.4-0.4,0.5-0.6c0.1,0,0.2,0,0.3,0c0.3-0.3,0.3-0.3,0.4-0.5l-0.1,0c-0.1,0-0.1,0-0.2,0
			c0-0.1,0.1-0.1,0.2-0.2l0-0.1l0.1-0.1c0.2-0.1,0.3-0.3,0.5-0.4C43.8,59.4,44.2,58.6,45,58.3 M57.3,98.3
			c2.2-14.5,6.3-27.6,11.9-38.3c-2.7-0.1-5.3-0.2-7.7-0.4c-6.1-0.3-10.8-0.7-14.2-1.1c-0.2,0-0.3,0-0.5-0.1l0,0.1h0h0h0h0h0l0,0h0
			c-1.1,0.7-1.1,0.7-1.1,0.9c0.2,0.1,0.2,0.1,1.2-0.4c0,0.3,0,0.3-1.6,2.2c-0.1,0.1-0.2,0.1-0.3,0.1c0-0.1,0-0.2-0.1-0.3
			c0.1-0.1,0.2-0.3,0.3-0.4c0-0.1,0-0.1-0.1-0.1c0.1-0.1,0.2-0.3,0.3-0.4l-0.2,0c-0.8,0.7-3.1,2.7-3.4,3.6l-0.2,0.2
			c0-0.1-0.1-0.2-0.1-0.2c-0.3-0.1-0.3-0.1-1.2,1.1l-0.1,0c0.1-0.5,0.1-0.5,0.2-1c-0.5,0.2-2.1,1.1-2.2,1.2c0-0.1-0.1-0.2-0.1-0.3
			c0.2-0.3,0.2-0.3,0.5-0.7l-0.1,0l-0.2,0.2c-0.2,0-0.3,0-0.3,0c-0.2,0.1-0.2,0.1-0.6,0.6c-0.1,0.1-0.2,0.1-0.2,0.1
			c0-0.3,0-0.3,0.4-0.7l-0.1,0.1l-0.1,0c0.1-0.1,0.2-0.2,0.3-0.4c0.1-0.1,0.2-0.3,0.3-0.4c0.1,0,0.2,0,0.2,0c0,0.1,0,0.2,0,0.3
			c0.1,0,0.2,0,0.3,0c0.4-0.5,1.6-1.9,1.6-1.9l-0.1,0c-0.3,0.1-0.3,0.1-0.8,0.6l0,0h0c0.2-0.3,0.2-0.3,0.7-0.8
			c0.2-0.2,0.3-0.3,0.4-0.4c0.1-0.8,0.8-1.1,1.2-1.6c-0.6,0.3-1.5,1.2-1.5,1.2c-0.2,0.2-0.2,0.2-0.2,0.3c-0.7,0.7-1.3,1.5-1.9,2.2
			c-0.1,0.2-0.2,0.3-0.3,0.3c-0.1,0.1-0.3,0.3-0.4,0.5c-0.2,0.3-0.4,0.6-0.6,0.9c-0.1,0.1-0.2,0.3-0.3,0.4l-0.1,0
			c-0.1,0-0.2,0-0.2,0.1l-0.1,0l-0.2-0.1c-0.4,0.4-0.8,0.7-1.1,1.1c-0.1-0.1-0.1-0.1-0.1-0.1l0,0c-0.2,0.1-0.3,0.3-0.4,0.4l-0.1,0.2
			c-0.2,0.2-0.4,0.5-0.5,0.7c-0.3,0.1-0.3,0.1-0.9,0.8c-0.1,0.1-0.1,0.1-0.1,0.1c-0.4,0.4-0.7,0.9-1,1.3L31,69.9
			c-0.2,0.3-0.3,0.5-0.5,0.7l-0.1,0c0.1-0.3,0.1-0.4,0.2-0.5l0.1-0.2c-0.2,0.2-0.4,0.5-0.5,0.7l-0.4,0.6l-0.1,0.2
			c-0.1,0.1-0.1,0.2-0.2,0.3c0-0.2,0.1-0.4,0.1-0.5c-0.2,0.2-0.2,0.2-0.5,0.6C29,72.1,29,72.1,29,72.1c-0.1,0.1-0.2,0.3-0.2,0.4
			c0,0.1,0,0.1,0,0.1c-0.2,0.4-0.4,0.8-0.6,1.2c-0.2,0.4-0.5,0.8-0.7,1.3c-1.5,3-1.5,3-2.2,4.2L25,79.5c-0.1,0.1-0.1,0.1-0.1,0.1
			c0.1-0.2,0.1-0.5,0.2-0.7c0.1-0.2,0.1-0.3,0.1-0.3c0-0.1,0.1-0.2,0.1-0.3c0.1-0.1,0.1-0.1,0.1-0.1c-1.4,2.9-3.2,6.9-4.3,9.9l0,0
			c0,0.1-0.1,0.3-0.1,0.4c-0.1,0.3-0.2,0.6-0.3,1c0-0.1,0.1-0.2,0.1-0.3l0-0.1c0.5-0.8,0.3-2,1.4-2.5c0.1-0.3,0.2-0.6,0.3-0.9
			c0.4-1.1,0.4-1.1,0.9-2.2c0.5-1,1.1-1.3,1.1-1.3c0.2-0.3,0.3-0.5,0.5-0.8c0-0.1,0.1-0.2,0.1-0.3c0,0,0.6-1.3,0.8-1.6
			c0.2,0.1,0.2,0.1,0.2,0.1v0h0l0,0l0,0l0,0h0l0,0c0,0.2,0,0.4,0,0.5l0.1,0c0.1-0.1,0.1-0.1,0.7-1.1l0.1,0c0.3-0.2,0.3-0.2,0.7-0.7
			c0.2,1-0.6,1.7-0.6,2.6c0,0.2-0.1,0.5-0.1,0.7c-0.1,1.5-0.1,1.5,0.1,1.7c-0.4,3.5-0.4,3.5-0.6,3.9c-0.5,0.1-0.9,0.5-1.4,0.4
			c-0.1,0.1-0.2,0.2-0.2,0.3c0.1,0.4-0.1,0.8,0,1.3l0.2,0.2c0.2,0,0.3,0.1,0.5,0.1c0.1-0.3,0.2-0.7,0.3-1c0.7-0.5,1.8-2.4,1.8-2.4
			c0.1-0.3,0.1-0.4,0.2-0.4c-0.2,0-0.2,0-0.3,0c0-0.1,0-0.2,0-0.3c0-0.1,0.1-0.2,0.1-0.2C27.9,85,28,85,28.1,85
			c0.1,0.1,0.1,0.3,0.1,0.5c0,0,0,0,0.5-1.3l-0.2-0.1c0-0.6,0-1.5,0-1.5l-0.2-0.2c0-0.8,0.2-1.6,0.2-2.4c0-0.1,0-0.1,0-0.1
			c0.1-0.3,0.2-0.4,0.4-0.8c-0.1,0-0.2-0.1-0.2-0.1c0-0.2,0.1-0.4,0.3-0.6l0.2-0.2c0.2-0.2,0.2-0.2,0.2-0.3c0.3-0.8,0.3-0.8,0.5-0.9
			l0.1,0.2c0,0.1-0.6,1.5-0.3,3.8c-0.1,0.6,0.3,1.2,0.2,1.8c-0.2,1.3-1,2.4-1.2,3.7c0.1,0,0.2,0.1,0.3,0.1c0,0.5-0.1,0.8-0.3,1.2
			c-0.1,0-0.2,0-0.3,0c0-0.1,0.1-0.2,0.1-0.2c-0.1,0-0.2,0-0.2,0.1c-0.2,0.7-0.1,1,0,1.4c0.1-0.1,0.2-0.2,0.3-0.3l0.2-0.2
			c-0.1,0.6-0.2,1.2-0.3,1.8c0.1,0.2,0.2,0.3,0.3,0.3c0.1,0,0.2,0,0.3,0c0.1-0.2,0.3-0.4,0.4-0.6c0.1-0.2,0.1-0.3,0.1-0.3
			c0-0.3,0.1-0.4,0.4-0.6c0,0.1,0.1,0.2,0.1,0.3c0.2,0.1,0.2,0.1,0.3,0.1c0.2-0.2,0.2-0.2,0.5-1c0.1,0,0.2,0,0.2,0
			c0.4-0.4,0.1-0.8-0.1-0.9c-0.1,0.5-0.1,0.5-0.3,0.7c-0.1,0-0.2,0-0.3,0c0-0.5,0-0.5,0.2-1.5c-0.3-0.3-0.2-0.7-0.2-0.9
			c0-0.1,0.1-0.2,0.1-0.3l0.2-0.2l0.1,0.1c0,0.1,0.1,0.3,0.2,0.4c0.1,0,0.2,0,0.2,0l0.1,0c0.3-0.3,0.2-0.8,0.6-1
			c0.2,0,0.3,0.1,0.5,0.1c0.1,0.1,0.2,0.3,0.2,0.5c0.1,0,0.2,0.1,0.2,0.1c0,0.1-0.1,0.3-0.1,0.5l0.1,0.1l-0.1,0.5
			c-0.9,0.4-0.2,1.4-0.6,2.1c0,0.2-0.1,0.4-0.2,0.5c0,0.1-0.1,0.2-0.1,0.3c0,0.1,0,0.1,0,0.7l0,0.1l0,0.1l0,0.1l0,0.1l0,0.1
			c0,0.2-0.1,0.4-0.2,0.6L31.8,91l-0.1,0.2c-0.1,0.5-0.1,0.5-0.2,0.8l0,0.1l0,0.1c0.1-0.1,0.2-0.3,0.3-0.4l0.1-0.3
			c0-0.2,0.1-0.4,0.1-0.5c0-0.1,0.1-0.2,0.1-0.2c0.1-0.1,0.1-0.1,0.2-0.1l0.1,0l0,0.1l0,0.1l0,0.1c0,0.1,0.1,0.3,0.1,0.4l0,0.2
			l0,0.1l0.1,0.1l0.1,0c0.1,0,0.2,0,0.3,0l0.1,0.1c0.2,0,0.2,0,0.2,0.1l0.1-0.1l0.1-0.1l0-0.1l0.1-0.1c0.1-0.5,0.1-0.5,0.3-0.7
			l0.1-0.1l0.1-0.1c0.1,0,0.2,0,0.2,0l0.2,0.2c0,0.1,0,0.3,0.1,0.4c0,0.1,0.1,0.3,0.2,0.4l0,0.1l0.1,0.1l0.1,0l0.1,0.1
			c0.4,0,0.7,0.1,1.1,0.1c0-0.1,0.1-0.3,0.1-0.5l0.1-0.2c0-0.1,0.1-0.3,0.1-0.5l0.2,0l0.1,0l0.1,0c0.1,0,0.2,0.1,0.3,0.1
			c0,0.1,0,0.3,0.1,0.3c0.2,0,0.2,0,0.3,0l0.1-0.1l0.1-0.1l0.1-0.1l0.1,0c0,0.1,0,0.3,0.1,0.3l0,0.1c-0.1,0.5-0.1,0.5-0.3,0.9
			c-0.5,0.8-0.4,1.3-0.4,1.5l0,0.1c0.1,0.4,0,0.4-0.2,0.8L36.8,95l-0.1,0.1c0,0.1-0.1,0.3-0.2,0.5l-0.1,0.1
			c-0.6,0.8-0.6,0.8-0.7,0.9l-0.1,0.1l-0.1,0.1l0,0.1c3.3,0.4,7.1,0.6,11.4,0.9C50.2,98,53.7,98.2,57.3,98.3 M154.3,73.9
			c-0.8-1.6-2.3-2.8-3.1-4.4c-0.1-0.2-0.1-0.3-0.2-0.4c0,0-0.3-0.8-0.6-1l0,0h0l0,0l0,0h0l0,0h0l0,0c-0.6-0.5-0.8-1.2-1.2-1.9
			c-0.1,0-0.2,0-0.3,0c0.3,0.5,0.6,1.1,0.9,1.6c-0.1,0-0.3,0-0.4,0.1c0,0.1,0,0.2,0.1,0.3l0.1,0.2c0.1,0.1,0.1,0.2,0.1,0.3
			c0.2,0.2,0.2,0.3,0.4,0.6c0,0.1-0.1,0.1-0.2,0.1c-0.2,0-0.2,0-0.7-1.2c0-0.1-0.1-0.2-0.1-0.2c-0.7-0.6-1.6-0.9-2.4-1.5
			c-0.3-0.1-0.5-0.1-0.6-0.1c0.2,0.4,0.4,0.7,0.6,1.1c-0.2,0-0.5,0-0.7,0c0,0-0.5-1-1.2-1.1l0.1,0.2c0.1,0.2,0.2,0.4,0.3,0.5
			l0.1,0.2c-0.1,0-0.3,0-0.4,0c-0.1-0.1-0.2-0.2-0.2-0.3c-0.2-0.7-0.2-0.7-0.7-1c0,0.1-0.1,0.3-0.2,0.3c-0.1,0-0.2,0-0.2,0l-0.2,0
			c-0.4-0.2-0.4-0.6-0.4-0.9c0.6-0.3,0.4-1.2,1.2-1.4c0.1-0.4-0.4-0.9-0.1-1.3c-0.1-0.6-0.1-0.6,0.2-1.1l-0.1-0.2
			c0.2-0.1,0.2-0.1,0-1.4l0.1-0.2c0.1,0,0.3,0,0.4,0c-4.4,0.1-9.3,0.2-14.6,0.4c3.4,8,6.2,17.4,8.1,27.7c0.3,0,0.5,0.2,0.7,0.2
			c0.1,0,0.1,0,0.1,0h0h0h0h0h0h0l0,0c0.8,0.2,0.8,0.3,0.9,0.7c0,0.2,0.1,0.3,0.1,0.4c-0.1,0.2-0.1,0.3-0.2,0.5
			c0.1,0.4-0.1,0.8,0,1.3c0.2,0,0.3,0,0.5,0l0.2-0.1c0.8-0.9,1.2,1.3,1.8,1.9c0.1,0.6,0.2,1.1,0.3,1.6c-0.1,0.4-0.4,0.7-0.4,1.1
			c0.1,0.3,0.1,0.6,0.1,0.8c0.4,0,0.9,0,1.3,0c0.4-0.1,0.6-0.4,0.9-0.6c0.4-0.3,0.8-0.5,1.1-0.9c0.3,0,0.3,0,0.5-0.2
			c-0.2-1.1-0.2-1.1-0.1-1.4c0-0.3-0.1-0.5-0.2-0.8c-0.3,0-2.2-2.2-2.2-2.2c-0.2-0.4-0.2-0.4-0.4-2.5c0.1,0,0.1,0,0.7-0.2
			c0.1,0,0.2,0,0.3,0c0.1,0,0.3-0.1,0.4-0.1c-0.2-0.8-0.3-1.5-0.5-2.3c0-0.5,0-0.5,0.1-0.8c0.8,0,0.5-1.1,1-1.4c0.8-0.4,1,1,1.7,0.6
			c0.7-0.3,1-1.1,1-1.1c0.8,0,0.8,0,1.7-2.4c0.4-1-0.3-2.2,0.7-3l0-0.2c0.8-0.2,0.4-1.2,0.8-1.7c0-0.1-0.1-0.3-0.2-0.4l0-0.1
			c-0.1-0.4-0.1-0.4-0.2-0.7c-0.1-0.1-0.1-0.2-0.1-0.3c0.1-0.6,0.1-0.6-0.1-1c-0.1-0.2-0.2-0.4-0.2-0.5l-0.1-0.2
			c-0.1-0.1-0.1-0.2-0.1-0.3c-0.2-0.4-0.3-1.8-0.2-1.8l0.2,0c0.1,0.1,0.3,0.2,0.4,0.3c0,0,1.4,1,3.4,8.3c0.1,0.1,0.3,0.1,0.4,0
			l0.1-0.1c0-0.1,0-0.3,0-0.5c0-0.1,0-0.3,0-0.4l0.2,0c0.3,0.6,0.3,0.8,1.1,0.8c-0.3-0.8-1.2-1.1-1.6-1.8c-0.3-0.7-0.5-1.5-0.8-2.2
			c0.1-0.1,0.1-0.1,0.1-0.5l0.2-0.1c0.3,0.1,0.5,0.4,0.8,0.5C154.4,74.2,154.4,74,154.3,73.9 M160.5,63.1l-0.3-0.4
			c-1.4-1.2-1.4-1.2-1.8-1.8c0-0.1,0-0.1,0.1-0.2c-0.2-0.2-0.3-0.4-0.5-0.4l0,0.1l0.1,0.1l-0.2,0.1c-0.9-1.1-0.9-1.3-0.8-1.5
			c-0.5,0-1,0.1-1.6,0.1c0,0,0.3,0.7,0.3,0.8c-0.1,0-0.2,0-0.2,0c0,0.2-0.1,0.3-0.2,0.5l-0.1,0c0,0.1,0,0.3,0.2,0.4
			c0.1,0.1,0.3,0.2,0.5,0.6c0.2,0.3,0.1,0.6,0.3,0.9c0,0.1,0.1,0.1,0.4,0.5l2.8,4.2c0.1,0.1,0.1,0.1,0.1,0.3
			c0.3,0.3,0.6,0.6,0.9,0.9c0.4,0.6,0.7,1.2,1.1,1.8l0.2,0.1l0,0v-0.1c0.2-0.1,0.2-0.3,0.4-0.3c-0.1-0.4-0.5-0.6-0.6-1
			c-0.1-0.3,0-0.7-0.2-1c-0.1-0.4-0.1-0.4-0.1-0.5l0.1,0l0.2,0.1l0.1,0l0.1,0c0-0.1-0.1-0.4-0.1-0.4c-0.3-0.4-0.5-0.8-0.8-1.2
			c0-0.2-0.1-0.4-0.1-0.6c0.3-0.1,0.5-0.1,0.8-0.1c-0.1-0.2-0.3-0.4-0.4-0.6c-0.2-0.2-0.4-0.4-0.6-0.6c0-0.1-0.1-0.1-0.2-0.2
			c-0.1-0.1-0.1-0.1-0.2-0.2l-0.4-0.9c0.1,0,0.1,0,0.4,0.2l0.2,0.1C160.4,63.1,160.5,63.1,160.5,63.1 M118.3,41.2
			c-0.2-0.2-0.3-0.4-0.5-0.5v0l0,0v0.1c0.1,0.1,0.2,0.2,0.3,0.2L118.3,41.2L118.3,41.2 M130,60.4c-3.2-7.6-7.1-14-11.3-18.8
			c-0.2,0-0.4,0-0.6,0c-0.2,0.1-0.5,0.3-1.5-0.2c-0.1,0-0.2,0.1-0.3,0.1c-0.1,0-0.2-0.1-0.3-0.2c-0.2-0.3-0.3-0.4-0.3-0.4
			c-0.5-0.3-0.5-0.3-0.9-0.1l-0.1,0c-0.3-0.1-0.5-0.1-0.7-0.1l-0.2,0.1c-0.1,0-0.2,0-0.3-0.1c-0.3,0.1-0.4,0.1-0.4,0.1
			c-0.3-0.1-0.5-0.4-0.7-0.5c0,0.1-0.1,0.2-0.1,0.3c-0.1,0-0.2,0-0.3,0l-0.2-0.2h0.3l0.1-0.3c0-0.2,0-0.3,0-0.3
			c-0.1,0-0.2-0.1-0.3-0.1c-0.1,0-0.2,0.1-0.3,0.1c0,0.1,0,0.2,0,0.3c-0.3,0.2-0.5,0.2-0.8,0.2l-0.1,0.1c0.1,0.1,0.1,0.2,0.2,0.2
			c0.1,0.1,0.1,0.1,0.1,0.1l-0.2,0.2c-0.1,0-0.1,0-0.1,0c-0.2,0-0.4,0-0.6,0.1c-0.2,0-0.3,0-0.4,0c-0.3,0.1-0.3,0.1-0.3,0.1l-0.1,0
			c0.3-0.3,0.9-1,0.9-1.1c0.2,0,0.2,0,0.3,0l0.2-0.2c0.2-0.2,0.2-0.2,0.3-0.2c0.1,0,0.2-0.1,0.3-0.1c0-0.1,0-0.2,0-0.3
			c0.1-0.2,0.2-0.2,0.4-0.2c-0.1-0.1-0.1-0.2-0.2-0.3c0-0.1,0-0.1,0.1-0.1c-0.1-0.2-0.3-0.3-0.4-0.5c-0.2-0.1-0.2-0.1-0.2-0.1
			c-0.3-0.3-0.7-0.4-1-0.7c-0.2,0-0.4,0-0.6,0c-0.2,0-0.4,0-0.6,0.1c-0.2-0.1-0.4-0.2-0.6-0.2c0,0.1,0.1,0.2,0.1,0.3
			c-0.1,0-0.2,0-0.3,0l-0.1-0.1l0-0.1c0-0.1-0.1-0.2-0.1-0.3c-0.2,0-0.3,0-0.5,0c-0.1,0-0.2,0-0.3,0c0-0.1-0.1-0.2-0.1-0.3
			c0.1-0.2,0.1-0.2,0-0.3c-0.3,0-0.6,0-0.9,0c-0.2,0.1-0.4,0.2-0.6,0.3c0,0.3,0,0.3,0,0.3c0,0.1-0.1,0.2-0.1,0.3
			c0.1,0.1,0.1,0.2,0.2,0.3c-0.3,0-0.6,0-0.9,0c-0.1,0.2-0.1,0.2-0.1,0.2l0,0h0h0l0,0h0v0l0,0c-0.1,0.1-0.1,0.1-0.1,0.1
			c-0.1,0.1-0.1,0.1-1.1-0.1c-0.2,0-0.2,0-0.2,0c-0.1,0-0.2,0-0.3-0.1c-0.1,0.2-0.3,0.4-0.4,0.5c-0.2,0-0.3,0-0.5,0
			c-0.3,0.1-0.6,0.3-0.8,0.4c-0.1,0-0.2-0.1-0.3-0.1c-0.6,0.3-2.1,1.1-2.1,1.1c0.1,0.1,0.3,0.3,0.5,0.4c0,0.1,0,0.2,0,0.2
			c-1,0.2-1,0.2-1.2,0.3c-0.3-0.1-0.3-0.1-0.9-0.1c-0.3,0-0.4,0-0.6,0l-0.3,0.1C95.8,41,95.6,41,95.4,41c-0.1,0.1-0.2,0.1-0.3,0.2
			c0,0.2,0.1,0.4,0.2,0.6c0,0.1,0,0.1,0,0.1c0,0.1,0,0.2-0.1,0.3c0.1,0.1,0.2,0.1,0.3,0.2l0.2,0c0.1,0,0.2,0.1,0.3,0.1
			c0,0.1,0,0.2,0.1,0.3c0,0.1,0,0.1-0.1,0.2c-0.1,0.1-0.2,0.1-0.2,0.2c-0.3-0.1-0.5-0.3-0.8-0.4l0-0.3c-0.3-0.1-0.6-0.1-0.8-0.1
			L94,42.1c-0.6-0.2-1,0.2-1.1,0.3c0.2,0,0.4,0.1,0.5,0.3c-0.1,0.1-0.2,0.1-0.3,0.2c-0.1-0.1-0.2-0.1-0.2-0.2c-0.2,0-0.3,0-0.3,0
			c-0.2,0.1-0.4,0.3-0.5,0.4c0,0.1,0,0.2,0,0.3c0.2,0,0.2,0,0.2,0h0h0h0h0h0l0,0h0c0.4,0.2,0.4,0.2,0.6,0.7
			c-0.1-0.1-0.1-0.1-1.5-0.5c0-0.1-0.1-0.2-0.1-0.3c0.1-0.2,0.2-0.3,0.2-0.4c0.5-0.9,0.5-0.9,0.5-1.1c-0.2-0.1-0.2-0.1-0.2-0.1h0h0
			h0h0h0h0h0c-0.3,0.5-0.3,0.5-0.5,0.8l-0.1,0.2c-0.6,0-1.2,0.6-1.4,0.7l0,0.1c0.1,1.1,0.1,1.1-0.5,1.6l0,0.1
			c-0.1,0.3-0.2,0.6-0.3,0.9c0.4,0.3,0.6,0.3,0.8,0.3c0.1-0.1,0.4-0.3,0.5-0.4c0.1,0,0.1,0,0.1,0c1.2,1.4,1,1.5,0.3,2
			c0.1,0.1,0.2,0.2,0.3,0.3c0.1,0.1,0.4,0.2,0.5,0.2l-0.1,0.2c-0.1,0-0.2,0.1-0.3,0.1c-0.2,0-0.3,0-0.3,0c-0.1-0.1-0.3-0.4-0.3-0.5
			c0.1-0.3,0.1-0.3,0.2-0.4c0-0.1,0.1-0.2,0.1-0.3l-0.2-0.2c0-0.1,0-0.2,0-0.3c-0.6-0.2-1.9-0.7-3.2,2.3c-0.2,0.1-0.2,0.1-1.2,0.5
			c-0.1,0.1-0.1,0.2-0.2,0.2c-0.3,0.2-0.3,0.2-0.8,0c-0.4-0.1-0.7-0.2-1-0.2l-0.1-0.1c0.9-0.8,2.3-0.6,3.2-1.4
			c0.2-0.1,0.5-0.2,1.2-1.4c-0.2,0-0.4-0.1-0.6-0.1c0-0.1,0-0.1,0.6-1.2l0.1-0.2c0.6-0.8,0.6-0.8,0.7-1.7c0.2-0.5,0.3-0.8,0.5-1
			c0.1,0,0.3,0,0.4,0l0.5-0.8c-0.2-0.1-0.4-0.1-0.6-0.2c-0.1,0-0.2,0-0.3,0c-0.4,0-0.8,0.2-1.2,0.2c-0.7,0.9-1.4,1.4-1.9,1.7
			c-0.3,0-0.3,0-0.3,0c-0.1,0-0.2,0.1-0.3,0.2c-0.1,0.1-0.1,0.2-0.1,0.2c0,0.2,0,0.2,0,0.2c0,0.7-0.5,0.9-0.5,0.9
			c-0.2,0.1-0.3,0.3-0.4,0.4c0.4,0.2,0.4,0.4,0.3,0.7c0.1,0.1,0.1,0.2,0.2,0.3c0.2,0.5,0.2,0.5-0.5,1c-0.1,0-0.1,0-0.2,0
			c-0.1,0-0.2,0-0.3,0c-0.1-0.1-0.1-0.2-0.2-0.3c0-0.1,0.1-0.3,0.1-0.4c-0.6-0.3-0.6-0.3-0.7-0.5c-0.4,0-0.5-0.1-0.7-0.5
			c-0.4-0.2-0.6-0.2-0.8-0.2c0-0.1,0-0.2-0.1-0.3c-0.2,0-0.5,0-0.7,0c-0.1-0.2-0.2-0.4-0.3-0.6c0-0.1-0.1-0.2-0.1-0.3
			c-0.1,0-0.1,0-0.1,0c-0.1,0-0.1,0-0.7,0.9c0.1,0.1,0.2,0.1,0.3,0.2c0.1,1,0.1,1-0.3,1.3c-0.3,0.1-0.4,0.1-0.4,0.1
			c-0.3,0.1-0.5,0.5-1,0.5c0.2-0.3,0.4-0.5,0.7-0.8c0-0.2,0-0.2-0.1-0.2c-0.3,0.1-0.3,0.1-0.8,0.5c-0.2,0-0.3,0-0.3,0
			c-3.5,3.8-6.5,8.4-9.1,13.5C87.7,60.7,111,60.9,130,60.4 M59.3,114.2L59.3,114.2c0-0.4,0-0.7-0.1-0.9c-0.1-0.2-0.4-0.1-0.6-0.2
			c-0.2-0.2-0.2-0.2-0.3-0.5c0-0.2,0-0.3-0.1-0.5c-0.2-0.5-0.5-0.7-0.9-0.7c0,0-0.6,0-0.2-0.7c0.2-0.4,0.1-0.6,0.1-0.6
			c0-0.1-0.5-0.3-0.5-0.3c-0.2,0-0.3,0-0.5,0c0,0.7,0,0.7-0.2,0.9c-0.2,2.6-0.3,5.1-0.4,7.7c0.1,0,0.1,0,0.2,0c0.1,0,0.2,0,0.3,0
			c0.1,0,0.2,0,0.2,0c0-0.2,0.1-0.4,0.1-0.5c0.4-1.1,0.5-1.4,0.8-1.4l0.1,0c0.1,0.1,0.1,0.2,0.2,0.3c0.1,0.1,0.2,0.1,0.3,0.1
			c0-1.7,0.3-2.3,0.4-2.4c0.1-0.1,0.1-0.1,0.5-0.1C58.9,114.4,59,114.4,59.3,114.2 M138.3,103.5c0-0.3-0.2-0.6-0.3-0.8
			c-0.3,0-0.6-0.1-0.8-0.2c0-0.2-0.1-0.6,0-0.8c0.1-0.2,0.3-0.2,0.4-0.2c-0.3-0.8-0.7-1.6-0.9-2.4c-25.2,0.4-55.2,0.2-79.2-0.8
			c-0.4,2.8-0.8,5.6-1,8.5c0.4,1.2,0.4,1.2,0.7,1.4c0.5,0,0.9,0,1.3,0.1c0.1,0,0.1,0,1.3,0.7c0.6,0,1,0.1,1.4,0.1
			c0.1,0.1,0.3,0.1,0.4,0.2c0.8,0.1,1.5,0.1,2.3,0.1l1.6-0.2c0.5,0,1,0,1.5,0c0.7,0.6,1.2,0.9,3,3.6c0.3,0,0.4,0,0.5,0
			c0.5,0.1,0.5,0.1,1.6,0.6c-1.2-0.1-1.3,0.1-1.6,0.5c0.1,0.1,0.1,0.3,0.2,0.4c1,0.3,1.2,1.6,2.3,1.8c0.4,0.1,1.6-1.2,1.6-1.2
			c1.3,0.2,1.4,2.2,1.4,3.5c0,0.2,0,0.4,0,0.6c-0.4,2.4-0.4,2.4,2.8,8.9c0,0.5,0,0.6,0,0.7c-0.3,2.1,1.5,3.4,2.1,5.2
			c1,0.8,1,0.8,2.1-1.4c1.3-0.1,1.4-0.8,2-5.2c0-0.5,0-1.1,0-1.6c-0.1-1.5-0.1-1.5,1.8-2c1.1-2,3.5-2.8,4.4-4.9
			c0.2-0.1,0.6-0.1,0.8-0.2c0.2-0.7,0.3-0.7,0.8-0.8h0h0h0h0l0,0h0h0h0c0.7-0.2,0.7-0.2,0.8-1.8c0.5-0.3,0.9-0.3,1.3-0.3
			c0.1,0.1,0.3,0.1,0.4,0.2c0.4,0,0.4,0,0.5,0c0.5-0.3,1-0.5,1.4-0.8c0.6-0.2,1-0.2,1.5-0.2c0-0.3,0-0.6,0-0.9
			c0.3,0,0.6,0.1,0.8,0.2c0.5,1.2,0.8,2.4,1.5,3.5c0.9,0.8,0.9,0.8,1.2,1.2c0,0.1,0,0.2,0,0.3c0,0.3-0.1,0.7-0.1,1v-0.1
			c0.5-0.1,0.6-0.1,1.1,0.3c-0.3,3.5-0.3,3.5,1,3.5c0.2,0,0.3,0,0.4,0c0.4-0.3,0.4-0.3,1.2-0.6c0.4-0.2,0.4-0.3,0.4-0.4
			c0-0.1,0-0.2,0-0.3c0.1-0.1,0.2-0.2,0.3-0.3c1.6,0.5,0.8,2.4,1.9,3.2c0.1,0.5,0.1,0.5-0.4,1.2c1,4,1,4,0.3,4.3
			c-0.2,0.5-0.2,0.5-0.1,1.3c0,0.1,0,0.2,0,0.3c-0.9,3.2,2.7,4.4,3.3,6.9c0,0.5,0,1,0,1.5c0.7,2,3.8,3.2,3.8,3.2c0.2,0,0.3,0,0.3,0
			c0-0.1,0.1-0.3,0.2-0.4c-0.1-0.2-0.4-0.5-0.6-0.7c-0.6-0.9-0.7-3.9-0.7-3.9c0-0.1,0-0.2,0-0.3c0-0.4,0-0.5,0-0.5
			c0-0.5,0-0.7,0-0.9c-2.5,0.2-2.3-2.7-4-3.6c0-0.1,0-0.3-0.1-0.4c0-0.3,0-0.3,0-0.4c-0.2-0.2-0.5-0.5-0.8-0.6c0-0.5,0-1,0-1.4
			c0.5-1.1,1.8-3.7,1.8-3.7c0.5,0.5,0.6,1.2,1.3,1.6c0.3,0,0.3,0,0.4,0c0.2-0.1,0.6-0.2,0.8-0.1c1.7,3.1,1.7,3.1,2.8,3.4
			c0.1,0.1,0.2,0.3,0.2,0.4c-0.6,1-0.3,1.7,0,2.2c0.6-0.8,2.7-3.3,2.7-3.3c0.5,0.1,2.9,0.3,3-3.5c0-0.5,0-0.9,0-1.2
			c0.1-1-0.5-1.8-0.5-2.7c-0.7-0.3-0.7-0.3-1.8-1.6c-0.9-0.7-1.2-1.8-1.9-2.6c0.1-1.3,0.1-1.3,0.8-1.7c0.4-2.3,0.4-2.3,4-2.6
			c0.1,0.1,0.1,0.2,0.1,0.3c-0.1,0.8-0.1,1.4-0.1,1.9c-1.4,1.8-1.4,1.8-1.3,2.3c0.9,0.1,1.6,0.1,2.4,0.1c0.1-0.8,0.4-1.5,0.4-2.3
			c-0.1-0.1-0.3-0.1-0.4-0.2c-0.1-0.6-0.1-1.2-0.1-1.8c0.1,0,0.3,0,0.4,0c0.2,0,0.3,0,0.4,0c1.2-0.8,1.2-0.8,1.9-0.9
			c0.1,0,0.2,0,0.3,0C131.2,115.5,137.6,108.3,138.3,103.5 M40.5,57.5L40.5,57.5c0,0-0.3,0.2-1.1,1.1l-0.1,0.1
			c0.2-0.2,0.3-0.3,0.5-0.5l0,0l0.1-0.1C40.1,57.9,40.3,57.7,40.5,57.5 M33.5,66.8c0.1-0.1,0.2-0.3,0.3-0.5c0.2-0.3,0.4-0.6,0.6-1
			c-0.2,0.2-0.4,0.4-0.6,0.6c0-0.1,0-0.1,0.9-1.3l-0.1,0c0.1-0.1,0.1-0.1,1.1-1.4c0,0,1.8-2.4,2-2.6c0.1-0.1,0.1-0.1,0.2-0.2
			c0.2-0.2,0.4-0.4,0.7-0.6c0.3-0.3,0.5-0.5,0.8-0.8l-0.1-0.1c0.5-0.5,1-0.8,1.4-1.3l0,0l0,0l-0.1,0l0-0.1c-0.3,0.3-0.5,0.5-0.8,0.8
			c-0.7,0.7-0.7,0.7-0.7,0.7c0.1-0.1,0.1-0.2,0.2-0.2c-0.4,0.4-0.7,0.8-1,1.1l-0.2,0.2c-0.4,0.4-0.8,0.8-1.1,1.2l0,0l0.1,0
			c-0.1,0.1-0.2,0.3-0.3,0.4v0c0.1-0.1,0.2-0.3,0.4-0.4c-0.4,0.6-1,1.1-1.4,1.6l0,0.1l0.2-0.2c-0.3,0.5-0.8,0.9-1.1,1.4
			c-0.3,0.4-0.5,0.8-0.9,1.1c0-0.1,0.1-0.1,0.1-0.2l0,0c-0.1,0.1-0.1,0.1-0.2,0.2l-0.2,0.2c-0.2,0.3-0.2,0.3-0.3,0.4l0.1,0
			c0,0.1-0.1,0.1-0.4,0.5l0,0c-0.1,0.1-0.2,0.3-0.3,0.4l0,0l0,0l0,0l0,0v0h0v0v0c-0.4,0.6-0.5,0.6-0.5,0.7c0.1-0.1,0.1-0.1,0.2-0.2
			c-0.4,0.7-0.4,0.7-0.8,1.1l0,0c0,0-0.8,1.1-0.9,1.2l0.1-0.1c0.1-0.1,0.2-0.2,0.2-0.3L31,69.2l0,0c0.1-0.2,0.3-0.4,0.4-0.6l0,0.1
			l0,0l0,0.1l0,0c0.1-0.1,0.2-0.3,0.3-0.4c0,0.2-0.2,0.3-0.2,0.4l0,0l0.1,0c0.1-0.1,0.2-0.2,0.3-0.4l0.1,0l0.1-0.1
			c0.2-0.3,0.3-0.5,0.5-0.8l0.1-0.1C33,67.2,33.2,67,33.5,66.8L33.5,66.8 M35.4,63L35.4,63L35.4,63L35.4,63L35.4,63 M35.2,63.4
			c0.5-0.6,0.7-0.8,1.1-1.4v0c-0.1,0.1-0.3,0.3-0.4,0.4c0.1-0.1,0.2-0.3,0.3-0.4l0,0c-0.8,0.9-0.8,0.9-3.5,4.4l-0.5,0.7v0
			c0.2-0.2,0.3-0.4,0.5-0.7l0,0.1c0.1-0.1,0.2-0.2,0.2-0.3c0.5-0.7,1.6-2.1,1.6-2.1c0.1-0.1,0.2-0.3,0.3-0.4
			C35,63.7,35,63.6,35.2,63.4 M55.1,162.8c0-0.1-0.1-0.2-0.1-0.2c-1.2-3-1.2-3-2.6-3.5c0.3,0.9,0.3,0.9,0.3,1c0,0-0.2,0.5-0.6,0.9
			c-0.4,0.4,0.3,0.7,0.1,1.1c-0.3,0-0.3,0-0.3,0c0,0.3,0.3,0.6,0,0.9c-1.7,0-1.7,0-2,0.2c-0.1,0.1-0.1,0.1,0.3,0.8
			c0.1,0.1,0.1,0.1,0.1,0.9c0,0,0.6,1.5,1,1.8c0.1,0.1,0.3,0.3,0.7,1.1l0,0.1c-0.3-0.1-0.3-0.1-0.3-0.1c0,0.8,0.4,1.4,0.6,2.1
			c0,0.1,0.1,0.1,0.1,0.2c0.2,0.4,0.6,0.7,0.8,1.1c0.1,0.1,0.2,0.3,0.2,0.4c0.5,0.8,0.5,0.8,0.8,1.2c0.3,0,0.7,0,1,0.1
			c0.2,0.1,0.2,0.3,0.4,0.4c0.2,0.1,1.6,0.3,1.7-0.1c0.3-1-0.6-1.6-1-2.4c-0.2-0.5,0.1-1-0.1-1.5c-0.2-0.5-0.6-1-0.8-1.6l0.1-0.1
			c0,0,0.7-0.6,0.7-0.7c0-0.6-0.7-0.8-0.8-1.3c-0.1-0.3,0-0.7,0-1c-0.1-0.2-0.1-0.3-0.2-0.5c-0.1-0.2-0.2-0.3-0.3-0.5
			c0-0.1-0.1-0.2-0.1-0.2l0-0.1C55.2,163.3,55.2,163.3,55.1,162.8 M48.6,129.7c0-0.4,0-0.7-0.3-1.2c-1.4-0.3-2.4,1.6-4,0.9
			c-0.2,0-0.3,0-0.4,0c-1.3,0.1-1.6,0.2-2.4-0.3c-0.6-1.3-0.6-1.3-0.6-1.7c-0.1-0.1-0.3-0.2-0.4-0.3c-0.5-1.6-0.5-1.6-1.2-1.8
			c-4.4-7.5-4.4-7.5-4.1-8.7c0-0.2,0-0.4,0-1c-0.6-10.6-3.2-16.2-3.4-16.8c0,0-0.1,0-0.6,0.2c-0.1,0.1-0.3,0.2-0.4,0.3l-0.1,0
			c-0.8-0.4-1.8-0.9-2.6-1c-0.7-2-0.7-2-1.1-2.3c-0.1,0.1-0.3,0.1-0.5,0.2c-0.1-0.1-0.3-0.2-0.4-0.2c-0.9,3.4-0.9,3.4-1.2,3.6
			c-0.1,0-0.1,0-0.3,0c-0.2-0.4-0.2-0.9-0.5-1.4c-0.3,0-0.6-0.1-0.9-0.6c0.2-1.6-0.3-1.8-0.8-2.1c-0.4-2.4,2-4.2,1.4-6.6
			c-0.4,0.1-0.7,0.4-1.2,0.4c-0.1,0.1-0.2,0.3-0.4,0.4c0.1-0.3,0-0.7-0.1-1c-0.2,0.2-0.4,0.6-0.6,0.8c-0.1,0-0.2-0.1-0.4,0.1
			c-0.4,0.9-0.4,0.9-0.7,1.3c0,0,0,0,0-0.2c0,0,0,0,0-0.2c0-0.1,0.1-0.3,0.1-0.5c0-0.1,0.1-0.2,0.1-0.3c-0.3,0.7-0.3,0.9-0.8,2.4
			c-0.9,3.2-1.9,7.5-2.6,10.8c-0.8,4.6-0.8,4.6-1.2,13.8c0,2.3,0.2,5.3,0.3,7.6c0.3,2.8,0.9,6.5,1.3,9.2l0-0.1c0,0,0,0,0.1,0.2
			c0.1,0.1,0.2,0.3,0.3,0.4c0-0.3,0-0.6,0.2-0.9c0,0,0,0,0-0.2c0.1-0.1,0.2-0.3,0.3-0.4c0.6,2.4,0.6,2.4,0.9,2.9
			c0.3,0.1,0.6,0.2,1,0.3c0.1,0.6,0.2,1.1,0.4,1.7c0.9,5.6,4.3,10.3,6.1,15.6c0.1,0.2,0.2,0.3,0.2,0.5c5.5,11.5,5.5,11.5,9.6,15.9
			c0.5,0.7,1.1,1.5,1.6,2.2C41,174.6,46,179,46,179l0.2,0.2c0.4,0.7,0.5,0.7,1,1.1c0.1,0,0.1,0,0.3,0.2c0.4,0.4,0.6,0.5,1.2,0.9
			c0.2,0,0.5,0.1,0.9-0.3c0.3,0,0.7,0.1,0.9-0.2c0-0.3,0-0.7,0.1-0.9l-3.5-7.2c0.1,0,0.3-0.1,0.5-0.1c0-1.2,0-1.2,0.1-1.5
			c-2.8-4.2-2.8-4.2-3-7c0.2-0.2,0.6-0.4,0.9-0.4c0.6-0.9,0.6-0.9,0.1-3.2c-0.1-0.2-0.2-0.5-0.4-1.1c-0.1-0.3-0.3-0.6-0.5-0.9
			c-0.4-1-0.7-1.9-1.4-3.1c-1.3-1.4-1.4-3.3-2.4-4.9c0-0.1-0.1-0.2-0.1-0.6c0-0.3-0.1-0.6-0.2-0.9l4.2-9.8
			C47.9,138.3,48.5,132.8,48.6,129.7 M94.9,32.1L94.9,32.1l-0.1,0L94.9,32.1 M90.3,32.7c-0.4,0-0.8,0.1-1.2,0.2c-0.1,0-0.1,0-0.1,0
			c-0.5,0.1-0.9,0.1-1.3,0.2v0c0.1,0,0.2,0,0.4-0.1c-0.5,0.1-0.5,0.1-0.7,0.1l-0.1,0l-0.3,0.1c-1.9,0.3-2.2,0.4-3.6,0.7
			c-0.1,0-0.1,0-0.1,0C83,33.9,82.7,34,82.4,34c-0.1,0-0.1,0-0.1,0c-0.9,0.2-1.5,0.4-1.8,0.5c-0.4,0.1-0.9,0.2-1.3,0.3
			c0.2-0.1,0.5-0.1,0.7-0.2c-0.4,0.1-1,0.3-1.2,0.3l0,0l0.1,0c-0.3,0.1-0.6,0.2-0.9,0.2c-0.1,0-0.1,0-0.1,0l0.1,0
			c-0.2,0.1-0.4,0.1-0.6,0.2c-0.1,0-0.2,0.1-0.2,0.1c-0.2,0.1-0.3,0.1-0.5,0.2c-0.1,0-0.2,0.1-0.3,0.1l0.3-0.1l0.1,0
			c3.8-1.1,8.1-2.3,16.1-3.2l0,0c0.1,0,0.3,0,0.4,0l0.1,0l0.1,0l0.1,0c0.1,0,0.3,0,0.4,0c0.1,0,0.2,0,0.3,0l0.1,0l0,0l0,0l0.1,0
			l0.1,0l0,0c0.1,0,0.3,0,0.4,0l0.1,0c0.1,0,0.2,0,0.4,0l0.1,0l0.1,0l0,0l0,0h0l-0.1,0h0l-0.1,0l0,0l0,0h0l-0.1,0l-0.1,0l-0.1,0
			c0.2,0,0.5,0,0.7-0.1l0.1,0l0.1,0l0.1,0l0.1,0l0.1,0l0.1,0c0.2,0,0.3,0,0.5,0h0l0,0l-0.1,0l0.1,0l-0.1,0c-0.1,0-0.1,0-0.1,0
			c0.1,0,0.2,0,0.4,0c-0.2,0-0.5,0-0.7,0l-0.1,0c-0.1,0-0.2,0-0.2,0c0.5,0,0.9,0,1.4-0.1l0,0c-0.1,0-0.1,0-0.1,0c0.2,0,0.3,0,0.5,0
			c-0.1,0-0.2,0-0.2,0c-0.1,0-0.1,0-0.1,0c-0.1,0-0.2,0-0.4,0h0c-0.3,0-0.6,0-0.9,0c0,0,0.1,0,0.2,0c-0.2,0-0.3,0-0.5,0l0,0l-0.3,0
			l-0.1,0c0.1,0,0.2,0,0.3,0l0,0l0,0l0,0l0,0c-0.1,0-0.2,0-0.4,0c-0.1,0-0.1,0-0.1,0l0.1,0c0.1,0,0.1,0,0.1,0
			c-0.4,0-0.7,0.1-1.1,0.1l0,0l0.1,0l-0.1,0c-0.2,0-0.4,0-0.6,0.1c-0.2,0-0.5,0-0.7,0.1l0.1,0c-0.1,0-0.2,0-0.3,0c0,0,0.1,0,0.2,0
			c-0.2,0-0.7,0.1-1.4,0.2l0.2,0l0,0l0,0h0l0,0l0,0l0,0h0h0c0.1,0,0.1,0,0.1,0l0,0l0,0l0,0l0,0h0l0,0h0c0.2,0,0.3,0,0.5-0.1l-0.1,0
			l-0.1,0l0.1,0c-0.1,0-0.3,0-0.5,0.1l-0.2,0l0,0c-0.3,0-0.7,0.1-1,0.1c0.1,0,0.2,0,0.3,0l-0.1,0c0.5-0.1,1-0.1,1.5-0.2l-0.1,0l0,0
			c-0.5,0.1-1,0.1-1.6,0.2c-0.3,0-0.5,0.1-0.7,0.1c-0.7,0.1-1.2,0.2-2.1,0.3c0.7-0.1,1-0.2,1.6-0.2h0h0l0,0l0,0h0l0,0l0,0l0,0
			C89.8,32.7,90.1,32.7,90.3,32.7c-0.1,0-0.3,0-0.4,0c0.5,0,0.9-0.1,1.4-0.2c0.1,0,0.1,0,0.1,0h0l0,0l0,0l0,0l0.1,0
			c-0.1,0-0.2,0-0.3,0c-0.1,0-0.2,0-0.2,0c0.1,0,0.2,0,0.2,0C90.9,32.6,90.6,32.6,90.3,32.7"/>
	</g>
</g>
</svg>
