<?xml version="1.0" encoding="utf-8"?>
<!-- Generator: Adobe Illustrator 19.0.0, SVG Export Plug-In . SVG Version: 6.00 Build 0)  -->
<svg version="1.1" id="Layer_1" xmlns="http://www.w3.org/2000/svg" xmlns:xlink="http://www.w3.org/1999/xlink" x="0px" y="0px"
	 viewBox="0 0 202.4 231.7" style="enable-background:new 0 0 202.4 231.7;" xml:space="preserve">
<style type="text/css">
	.st0{clip-path:url(#XMLID_44_);}
</style>
<g>
	<g>
		<defs>
			<rect id="XMLID_40_" x="14" y="39.5" width="173.8" height="153.8"/>
		</defs>
		<clipPath id="XMLID_44_">
			<use xlink:href="#XMLID_40_"  style="overflow:visible;"/>
		</clipPath>
		<path class="st0" d="M149.1,67.7c3.5,0,7-0.9,10-2.7l28.8-17v-8l-32.4,18.9c-2.5,1.4-5.2,2.2-8.1,2.1l-42.9-0.5
			c-2.1-0.8-3.9-1.3-4.5-1.5c-13.4-3-23.9-1.8-31,0.1c-5.4,1.4-11.1,0.9-16.1-1.4L14,39.8v71.3l4,2.2c6,3.2,10.7,8.3,13.7,14.4
			l-2.3,1.9c-6.1,4.5-7.5,13.1-3.4,19.2c2.2,3,5.4,4.9,9.1,5.5c0.4,0,1.1,0.1,1.5,0.1c1.3,0.1,2.6-0.1,3.7-0.2
			c0.1,3.1,0.8,5.7,2.6,8.2c2.4,3.4,6.3,4.9,10.4,5.1c1.1,0.1,2.2,0.1,3,0.2c-0.4,3.2,0.5,6.6,2.6,9.3c2.2,3,5.4,4.9,9.1,5.5
			c0.4,0,1.1,0.1,1.5,0.1c3.2,0.2,6.4-0.8,8.8-2.6l1.4-1c0.3,2,0.9,3.7,2.1,5.4c1.8,2.5,4.6,4.2,7.8,4.8c0.4,0,0.9,0,1.3,0.1
			c2.6,0.1,5.2-0.6,7.5-2.2h0.2l1.6,2.2c2.8,4.1,8.7,5,12.7,2.2c3.4-2.4,4.7-7.2,3.2-11l0.3,0.4c2.7,4,7.7,5.7,12.2,3.9
			c4.9-2,6.9-7.3,5.6-11.8c3.3,3.7,8.9,4.4,13,1.6l0.2-0.2c4.1-2.8,5.2-8.2,3.1-12.5c3.5,3.2,9.2,3.7,13.2,0.9
			c4.7-3.5,6-10.1,2.5-14.9l-5.1-7.2l11-12.8c2.9-3.4,6.4-6.2,10.2-8.5l5.4-3.1v-8.5l-7.5,4.2c-4.3,2.4-8.1,5.6-11.3,9.3l-11.8,13.7
			c-3.5-3.2-9.2-3.7-13.2-0.9c-4.7,3.5-6,10.1-2.5,14.9l0.2,0.5h-0.2c-3.4-2.4-7.9-2.6-11.5-0.2l-0.2,0.2c-3.2,2.2-4.7,6.1-4,9.8
			l-1.1,0.8c-3.2-1.7-7.1-1.7-10.3,0.5c-2.9,2-4.4,5.6-4.2,8.9l-3.1,2c-2.4-0.6-5,0-7,1.4c-2.5,1.8-4,4.8-3.9,7.6l-1.6,1
			c-0.9,0.8-2.5,1.2-3.7,0.9c-1.3-0.3-2.6-1-3.4-2.1c-0.8-0.9-1.2-2.5-0.9-3.7c0.3-1.3,1-2.6,2.1-3.4l17-12.8
			c0.9-0.6,1.4-1.5,1.4-2.5c0.1-2-1.6-3.6-3.5-3.6c-0.7,0-1.4,0.2-2,0.5l-27.2,19.7c-1.6,1-3.4,1.6-5.3,1.2
			c-1.9-0.3-3.6-1.3-4.6-2.9c-2.2-3-1.6-7.5,1.6-9.7l32.4-23.1c0.7-0.6,1.2-1.5,1.2-2.7c0-1.9-1.5-3.4-3.4-3.5
			c-1.1,0-1.9,0.4-2.6,1.2l-31.7,22.9c-0.9,0.4-1.4,1-2,1.6c-3.8,2.4-9.5,1.9-11.5-0.8c-2-2.9-1.6-6.9,0.9-9.3l3.2-2.2l35.3-24
			c0.9-0.6,1.4-1.5,1.4-2.5c0.1-1.2-0.5-2.3-1.5-3c-1.2-0.9-2.5-0.9-3.8-0.1L46.1,143c-0.2,0.4-0.7,0.6-0.9,0.8l-3.6,2.6
			c-3,2.2-7.5,1.6-9.7-1.6c-2.2-3-1.6-7.5,1.6-9.7l71.2-52.4c5.7,3.4,9.9,10.1,9.9,10.1c7,21.9,15.7,22.1,21,19.4
			c2.7-1.4,4-4.6,3-7.5c-2.8-8.5-4.4-24.8-4.4-24.8c-2-4.2-8.2-8.7-15.2-12.3l22.9,0.4L149.1,67.7z M149.1,67.7"/>
	</g>
</g>
</svg>
